%TF.GenerationSoftware,KiCad,Pcbnew,10.0.6*%
%TF.CreationDate,2026-09-22T13:51:15-06:00*%
%TF.ProjectId,iwr6843_spi_adapter,69777236-3834-4335-9f73-70695f616461,rev?*%
%TF.SameCoordinates,Original*%
%TF.FileFunction,Soldermask,Top*%
%TF.FilePolarity,Negative*%
%FSLAX46Y46*%
G04 Gerber Fmt 4.6, Leading zero omitted, Abs format (unit mm)*
G04 Created by KiCad (PCBNEW 10.0.6) date 2026-09-22 13:51:15*
%MOMM*%
%LPD*%
G01*
G04 APERTURE LIST*
G04 Aperture macros list*
%AMRoundRect*
0 Rectangle with rounded corners*
0 $1 Rounding radius*
0 $2 $3 $4 $5 $6 $7 $8 $9 X,Y pos of 4 corners*
0 Add a 4 corners polygon primitive as box body*
4,1,4,$2,$3,$4,$5,$6,$7,$8,$9,$2,$3,0*
0 Add four circle primitives for the rounded corners*
1,1,$1+$1,$2,$3*
1,1,$1+$1,$4,$5*
1,1,$1+$1,$6,$7*
1,1,$1+$1,$8,$9*
0 Add four rect primitives between the rounded corners*
20,1,$1+$1,$2,$3,$4,$5,0*
20,1,$1+$1,$4,$5,$6,$7,0*
20,1,$1+$1,$6,$7,$8,$9,0*
20,1,$1+$1,$8,$9,$2,$3,0*%
G04 Aperture macros list end*
%ADD10RoundRect,0.200000X-0.275000X0.200000X-0.275000X-0.200000X0.275000X-0.200000X0.275000X0.200000X0*%
%ADD11RoundRect,0.200000X0.275000X-0.200000X0.275000X0.200000X-0.275000X0.200000X-0.275000X-0.200000X0*%
%ADD12RoundRect,0.150000X-0.150000X0.400000X-0.150000X-0.400000X0.150000X-0.400000X0.150000X0.400000X0*%
%ADD13R,1.700000X1.700000*%
%ADD14C,1.700000*%
%ADD15RoundRect,0.150000X0.150000X-0.400000X0.150000X0.400000X-0.150000X0.400000X-0.150000X-0.400000X0*%
%ADD16RoundRect,0.225000X-0.250000X0.225000X-0.250000X-0.225000X0.250000X-0.225000X0.250000X0.225000X0*%
%ADD17C,1.020000*%
G04 APERTURE END LIST*
D10*
%TO.C,R4*%
X14500000Y12425000D03*
X14500000Y10775000D03*
%TD*%
D11*
%TO.C,R2*%
X25890000Y17975000D03*
X25890000Y19625000D03*
%TD*%
D10*
%TO.C,R5*%
X9300000Y12425000D03*
X9300000Y10775000D03*
%TD*%
D12*
%TO.C,U2*%
X29950000Y16300000D03*
X29000000Y16300000D03*
X28050000Y16300000D03*
X28050000Y13700000D03*
X29000000Y13700000D03*
X29950000Y13700000D03*
%TD*%
%TO.C,U1*%
X23030000Y16300000D03*
X22080000Y16300000D03*
X21130000Y16300000D03*
X21130000Y13700000D03*
X22080000Y13700000D03*
X23030000Y13700000D03*
%TD*%
D11*
%TO.C,R7*%
X14460000Y17975000D03*
X14460000Y19625000D03*
%TD*%
%TO.C,R3*%
X20810000Y17975000D03*
X20810000Y19625000D03*
%TD*%
D13*
%TO.C,J2*%
X4300000Y22200000D03*
D14*
X6840000Y22200000D03*
X9380000Y22200000D03*
X11920000Y22200000D03*
X14460000Y22200000D03*
X17000000Y22200000D03*
X19540000Y22200000D03*
X22080000Y22200000D03*
X24620000Y22200000D03*
X27160000Y22200000D03*
X29700000Y22200000D03*
%TD*%
D11*
%TO.C,R1*%
X31900000Y17975000D03*
X31900000Y19625000D03*
%TD*%
D15*
%TO.C,U3*%
X10950000Y13700000D03*
X11900000Y13700000D03*
X12850000Y13700000D03*
X12850000Y16300000D03*
X11900000Y16300000D03*
X10950000Y16300000D03*
%TD*%
D16*
%TO.C,C2*%
X29000000Y11575000D03*
X29000000Y10025000D03*
%TD*%
%TO.C,C1*%
X22080000Y11575000D03*
X22080000Y10025000D03*
%TD*%
D11*
%TO.C,R6*%
X9380000Y17975000D03*
X9380000Y19625000D03*
%TD*%
D17*
%TO.C,J1*%
X26240000Y7530000D03*
X7760000Y7530000D03*
%TD*%
M02*
