%TF.GenerationSoftware,KiCad,Pcbnew,10.0.6*%
%TF.CreationDate,2026-09-22T13:51:15-06:00*%
%TF.ProjectId,iwr6843_spi_adapter,69777236-3834-4335-9f73-70695f616461,rev?*%
%TF.SameCoordinates,Original*%
%TF.FileFunction,Copper,L1,Top*%
%TF.FilePolarity,Positive*%
%FSLAX46Y46*%
G04 Gerber Fmt 4.6, Leading zero omitted, Abs format (unit mm)*
G04 Created by KiCad (PCBNEW 10.0.6) date 2026-09-22 13:51:15*
%MOMM*%
%LPD*%
G01*
G04 APERTURE LIST*
G04 Aperture macros list*
%AMRoundRect*
0 Rectangle with rounded corners*
0 $1 Rounding radius*
0 $2 $3 $4 $5 $6 $7 $8 $9 X,Y pos of 4 corners*
0 Add a 4 corners polygon primitive as box body*
4,1,4,$2,$3,$4,$5,$6,$7,$8,$9,$2,$3,0*
0 Add four circle primitives for the rounded corners*
1,1,$1+$1,$2,$3*
1,1,$1+$1,$4,$5*
1,1,$1+$1,$6,$7*
1,1,$1+$1,$8,$9*
0 Add four rect primitives between the rounded corners*
20,1,$1+$1,$2,$3,$4,$5,0*
20,1,$1+$1,$4,$5,$6,$7,0*
20,1,$1+$1,$6,$7,$8,$9,0*
20,1,$1+$1,$8,$9,$2,$3,0*%
G04 Aperture macros list end*
%TA.AperFunction,SMDPad,CuDef*%
%ADD10RoundRect,0.200000X-0.275000X0.200000X-0.275000X-0.200000X0.275000X-0.200000X0.275000X0.200000X0*%
%TD*%
%TA.AperFunction,SMDPad,CuDef*%
%ADD11RoundRect,0.200000X0.275000X-0.200000X0.275000X0.200000X-0.275000X0.200000X-0.275000X-0.200000X0*%
%TD*%
%TA.AperFunction,SMDPad,CuDef*%
%ADD12RoundRect,0.150000X-0.150000X0.400000X-0.150000X-0.400000X0.150000X-0.400000X0.150000X0.400000X0*%
%TD*%
%TA.AperFunction,ComponentPad*%
%ADD13R,1.700000X1.700000*%
%TD*%
%TA.AperFunction,ComponentPad*%
%ADD14C,1.700000*%
%TD*%
%TA.AperFunction,SMDPad,CuDef*%
%ADD15RoundRect,0.150000X0.150000X-0.400000X0.150000X0.400000X-0.150000X0.400000X-0.150000X-0.400000X0*%
%TD*%
%TA.AperFunction,SMDPad,CuDef*%
%ADD16RoundRect,0.225000X-0.250000X0.225000X-0.250000X-0.225000X0.250000X-0.225000X0.250000X0.225000X0*%
%TD*%
%TA.AperFunction,ViaPad*%
%ADD17C,0.600000*%
%TD*%
%TA.AperFunction,Conductor*%
%ADD18C,0.200000*%
%TD*%
%TA.AperFunction,Conductor*%
%ADD19C,0.300000*%
%TD*%
G04 APERTURE END LIST*
D10*
%TO.P,R4,1*%
%TO.N,/RADAR_MISO*%
X14500000Y12425000D03*
%TO.P,R4,2*%
%TO.N,/GND*%
X14500000Y10775000D03*
%TD*%
D11*
%TO.P,R2,1*%
%TO.N,/PI_SCLK*%
X25890000Y17975000D03*
%TO.P,R2,2*%
%TO.N,/GND*%
X25890000Y19625000D03*
%TD*%
D10*
%TO.P,R5,1*%
%TO.N,/RADAR_INTR*%
X9300000Y12425000D03*
%TO.P,R5,2*%
%TO.N,/GND*%
X9300000Y10775000D03*
%TD*%
D12*
%TO.P,U2,1*%
%TO.N,/GND*%
X29950000Y16300000D03*
%TO.P,U2,2*%
X29000000Y16300000D03*
%TO.P,U2,3*%
%TO.N,/PI_CS*%
X28050000Y16300000D03*
%TO.P,U2,4*%
%TO.N,/RADAR_CS*%
X28050000Y13700000D03*
%TO.P,U2,5*%
%TO.N,/RADAR_3V3*%
X29000000Y13700000D03*
%TO.P,U2,6*%
%TO.N,unconnected-(U2-Pad6)*%
X29950000Y13700000D03*
%TD*%
%TO.P,U1,1*%
%TO.N,/PI_SCLK*%
X23030000Y16300000D03*
%TO.P,U1,2*%
%TO.N,/GND*%
X22080000Y16300000D03*
%TO.P,U1,3*%
%TO.N,/PI_MOSI*%
X21130000Y16300000D03*
%TO.P,U1,4*%
%TO.N,/RADAR_MOSI*%
X21130000Y13700000D03*
%TO.P,U1,5*%
%TO.N,/RADAR_3V3*%
X22080000Y13700000D03*
%TO.P,U1,6*%
%TO.N,/RADAR_SCLK*%
X23030000Y13700000D03*
%TD*%
D11*
%TO.P,R7,1*%
%TO.N,/MISO_BUF*%
X14460000Y17975000D03*
%TO.P,R7,2*%
%TO.N,/PI_MISO*%
X14460000Y19625000D03*
%TD*%
%TO.P,R3,1*%
%TO.N,/PI_MOSI*%
X20810000Y17975000D03*
%TO.P,R3,2*%
%TO.N,/GND*%
X20810000Y19625000D03*
%TD*%
D13*
%TO.P,J2,1*%
%TO.N,/PI_3V3*%
X4300000Y22200000D03*
D14*
%TO.P,J2,2*%
%TO.N,/GND*%
X6840000Y22200000D03*
%TO.P,J2,3*%
%TO.N,/PI_INTR*%
X9380000Y22200000D03*
%TO.P,J2,4*%
%TO.N,/GND*%
X11920000Y22200000D03*
%TO.P,J2,5*%
%TO.N,/PI_MISO*%
X14460000Y22200000D03*
%TO.P,J2,6*%
%TO.N,/GND*%
X17000000Y22200000D03*
%TO.P,J2,7*%
%TO.N,/PI_MOSI*%
X19540000Y22200000D03*
%TO.P,J2,8*%
%TO.N,/GND*%
X22080000Y22200000D03*
%TO.P,J2,9*%
%TO.N,/PI_SCLK*%
X24620000Y22200000D03*
%TO.P,J2,10*%
%TO.N,/GND*%
X27160000Y22200000D03*
%TO.P,J2,11*%
%TO.N,/PI_CS*%
X29700000Y22200000D03*
%TD*%
D11*
%TO.P,R1,1*%
%TO.N,/RADAR_3V3*%
X31900000Y17975000D03*
%TO.P,R1,2*%
%TO.N,/PI_CS*%
X31900000Y19625000D03*
%TD*%
D15*
%TO.P,U3,1*%
%TO.N,/RADAR_INTR*%
X10950000Y13700000D03*
%TO.P,U3,2*%
%TO.N,/GND*%
X11900000Y13700000D03*
%TO.P,U3,3*%
%TO.N,/RADAR_MISO*%
X12850000Y13700000D03*
%TO.P,U3,4*%
%TO.N,/MISO_BUF*%
X12850000Y16300000D03*
%TO.P,U3,5*%
%TO.N,/PI_3V3*%
X11900000Y16300000D03*
%TO.P,U3,6*%
%TO.N,/INTR_BUF*%
X10950000Y16300000D03*
%TD*%
D16*
%TO.P,C2,1*%
%TO.N,/RADAR_3V3*%
X29000000Y11575000D03*
%TO.P,C2,2*%
%TO.N,/GND*%
X29000000Y10025000D03*
%TD*%
%TO.P,C1,1*%
%TO.N,/RADAR_3V3*%
X22080000Y11575000D03*
%TO.P,C1,2*%
%TO.N,/GND*%
X22080000Y10025000D03*
%TD*%
D11*
%TO.P,R6,1*%
%TO.N,/INTR_BUF*%
X9380000Y17975000D03*
%TO.P,R6,2*%
%TO.N,/PI_INTR*%
X9380000Y19625000D03*
%TD*%
D17*
%TO.N,/GND*%
X1200000Y18500000D03*
X6000000Y13000000D03*
X11900000Y12400000D03*
X18000000Y19000000D03*
X30949999Y16300000D03*
X32900000Y1200000D03*
X26000000Y15000000D03*
X32900000Y9500000D03*
X1200000Y1200000D03*
X16500000Y16000000D03*
X4500000Y5000000D03*
%TO.N,/RADAR_3V3*%
X23500000Y4150000D03*
%TO.N,/PI_3V3*%
X11900000Y17550000D03*
%TO.N,/RADAR_CS*%
X28050000Y12400000D03*
%TO.N,/RADAR_SCLK*%
X23030000Y12400000D03*
%TO.N,/RADAR_MOSI*%
X21130000Y12400000D03*
%TO.N,/RADAR_MISO*%
X12850000Y12400000D03*
%TO.N,/RADAR_INTR*%
X20750000Y4150000D03*
%TD*%
%TO.N,/GND*%
D18*
X29000000Y16300000D02*
X29949999Y16300000D01*
X27160000Y19625000D02*
X27160000Y22200000D01*
X25890000Y19625000D02*
X27160000Y19625000D01*
X22080000Y16300000D02*
X22080000Y22200000D01*
X11900000Y13700000D02*
X11900000Y12400000D01*
X20810000Y19625000D02*
X22080000Y19625000D01*
X29949999Y16300000D02*
X30949999Y16300000D01*
%TO.N,/RADAR_3V3*%
D19*
X29900000Y11575000D02*
X31900000Y11575000D01*
D18*
X22080000Y11575000D02*
X22080000Y13700000D01*
D19*
X29900000Y8800000D02*
X29900000Y11575000D01*
D18*
X29000000Y11575000D02*
X29000000Y13700000D01*
D19*
X23500000Y8800000D02*
X23500000Y11575000D01*
X23500000Y8800000D02*
X29900000Y8800000D01*
X23500000Y11575000D02*
X22080000Y11575000D01*
X29900000Y11575000D02*
X29000000Y11575000D01*
X23500000Y4150000D02*
X23500000Y8800000D01*
X31900000Y11575000D02*
X31900000Y17975000D01*
%TO.N,/PI_3V3*%
D18*
X11900000Y16300000D02*
X11900000Y17550000D01*
%TO.N,/PI_CS*%
X29699999Y22200000D02*
X29699999Y19625000D01*
X28050000Y16800000D02*
X28050000Y16300000D01*
X29699999Y19625000D02*
X31900000Y19625000D01*
X29699999Y19625000D02*
X29699999Y17800000D01*
X29699999Y17800000D02*
X28050000Y16800000D01*
%TO.N,/PI_SCLK*%
X23030000Y16800000D02*
X23030000Y16300000D01*
X24620000Y22200000D02*
X24620000Y18400000D01*
X24620000Y18400000D02*
X23030000Y16800000D01*
X24620000Y18400000D02*
X25890000Y17975000D01*
%TO.N,/PI_MOSI*%
X19540000Y22200000D02*
X19540000Y18400000D01*
X19540000Y18400000D02*
X20810000Y17975000D01*
X20810000Y17975000D02*
X21130000Y16800000D01*
X21130000Y16800000D02*
X21130000Y16300000D01*
%TO.N,/PI_MISO*%
X14460000Y22200000D02*
X14460000Y19625000D01*
%TO.N,/PI_INTR*%
X9380000Y22200000D02*
X9380000Y19625000D01*
%TO.N,/MISO_BUF*%
X14460000Y17975000D02*
X12850000Y16300000D01*
%TO.N,/INTR_BUF*%
X9380000Y17975000D02*
X10950000Y16300000D01*
%TO.N,/RADAR_CS*%
X28050000Y12400000D02*
X28050000Y13700000D01*
%TO.N,/RADAR_SCLK*%
X23030000Y12400000D02*
X23030000Y13700000D01*
%TO.N,/RADAR_MOSI*%
X21130000Y12400000D02*
X21130000Y13700000D01*
%TO.N,/RADAR_MISO*%
X12850000Y12400000D02*
X12850000Y13700000D01*
X12850000Y12400000D02*
X14500000Y12425000D01*
%TO.N,/RADAR_INTR*%
X20750000Y4150000D02*
X10950000Y4150000D01*
X9300000Y12425000D02*
X10950000Y12425000D01*
X10950000Y4150000D02*
X10950000Y13700000D01*
%TD*%
%TA.AperFunction,Conductor*%
%TO.N,/GND*%
G36*
X33659190Y25581094D02*
G01*
X33695154Y25531594D01*
X33699999Y25501001D01*
X33699999Y399000D01*
X33681092Y340809D01*
X33631592Y304845D01*
X33600999Y300000D01*
X399000Y300000D01*
X340809Y318907D01*
X304845Y368407D01*
X300000Y399000D01*
X300000Y12656523D01*
X8624500Y12656523D01*
X8624500Y12193480D01*
X8624501Y12193477D01*
X8639352Y12099701D01*
X8639354Y12099696D01*
X8696950Y11986658D01*
X8786658Y11896950D01*
X8899696Y11839354D01*
X8993481Y11824500D01*
X9606518Y11824501D01*
X9606520Y11824501D01*
X9606521Y11824502D01*
X9653411Y11831928D01*
X9700299Y11839353D01*
X9700299Y11839354D01*
X9700304Y11839354D01*
X9813342Y11896950D01*
X9903050Y11986658D01*
X9945742Y12070447D01*
X9989006Y12113710D01*
X10033951Y12124500D01*
X10550500Y12124500D01*
X10608691Y12105593D01*
X10644655Y12056093D01*
X10649500Y12025500D01*
X10649500Y4110436D01*
X10669978Y4034012D01*
X10669980Y4034008D01*
X10709538Y3965492D01*
X10709540Y3965489D01*
X10765489Y3909540D01*
X10765491Y3909539D01*
X10834007Y3869981D01*
X10834011Y3869979D01*
X10910435Y3849501D01*
X10910437Y3849500D01*
X10910438Y3849500D01*
X20301679Y3849500D01*
X20359870Y3830593D01*
X20371676Y3820510D01*
X20442686Y3749500D01*
X20442688Y3749499D01*
X20442690Y3749497D01*
X20556810Y3683610D01*
X20556808Y3683610D01*
X20556812Y3683609D01*
X20556814Y3683608D01*
X20684108Y3649500D01*
X20684110Y3649500D01*
X20815890Y3649500D01*
X20815892Y3649500D01*
X20943186Y3683608D01*
X20943188Y3683610D01*
X20943190Y3683610D01*
X21057309Y3749497D01*
X21057309Y3749498D01*
X21057314Y3749500D01*
X21150500Y3842686D01*
X21189098Y3909539D01*
X21216390Y3956810D01*
X21216390Y3956812D01*
X21216392Y3956814D01*
X21250500Y4084108D01*
X21250500Y4215892D01*
X21216392Y4343186D01*
X21216390Y4343189D01*
X21216390Y4343191D01*
X21150503Y4457310D01*
X21150501Y4457312D01*
X21150500Y4457314D01*
X21057314Y4550500D01*
X21057311Y4550502D01*
X21057309Y4550504D01*
X20943189Y4616391D01*
X20943191Y4616391D01*
X20893799Y4629625D01*
X20815892Y4650500D01*
X20684108Y4650500D01*
X20606200Y4629625D01*
X20556809Y4616391D01*
X20442690Y4550504D01*
X20442689Y4550503D01*
X20442686Y4550501D01*
X20442686Y4550500D01*
X20371680Y4479495D01*
X20317166Y4451719D01*
X20301679Y4450500D01*
X11349500Y4450500D01*
X11291309Y4469407D01*
X11255345Y4518907D01*
X11250500Y4549500D01*
X11250500Y12921635D01*
X11269407Y12979826D01*
X11300108Y13005611D01*
X11299806Y13006035D01*
X11305197Y13009885D01*
X11306020Y13010577D01*
X11306483Y13010802D01*
X11389198Y13093517D01*
X11440573Y13198607D01*
X11450500Y13266740D01*
X11450500Y14133260D01*
X12349500Y14133260D01*
X12349500Y13266740D01*
X12356118Y13221318D01*
X12359427Y13198605D01*
X12410801Y13093519D01*
X12410802Y13093517D01*
X12493517Y13010802D01*
X12493978Y13010577D01*
X12494387Y13010181D01*
X12500194Y13006035D01*
X12499572Y13005165D01*
X12537953Y12968035D01*
X12549500Y12921635D01*
X12549500Y12848321D01*
X12530593Y12790130D01*
X12520509Y12778324D01*
X12478420Y12736234D01*
X12449497Y12707311D01*
X12449496Y12707310D01*
X12383609Y12593191D01*
X12373394Y12555067D01*
X12349500Y12465892D01*
X12349500Y12334108D01*
X12356667Y12307360D01*
X12383609Y12206810D01*
X12449496Y12092691D01*
X12449498Y12092689D01*
X12449500Y12092686D01*
X12542686Y11999500D01*
X12542688Y11999499D01*
X12542690Y11999497D01*
X12656810Y11933610D01*
X12656808Y11933610D01*
X12656812Y11933609D01*
X12656814Y11933608D01*
X12784108Y11899500D01*
X12784110Y11899500D01*
X12915890Y11899500D01*
X12915892Y11899500D01*
X13043186Y11933608D01*
X13043188Y11933610D01*
X13043190Y11933610D01*
X13157309Y11999497D01*
X13157309Y11999498D01*
X13157314Y11999500D01*
X13235170Y12077357D01*
X13289684Y12105133D01*
X13303661Y12106341D01*
X13770195Y12113409D01*
X13828665Y12095385D01*
X13859903Y12059366D01*
X13896950Y11986658D01*
X13986658Y11896950D01*
X14099696Y11839354D01*
X14193481Y11824500D01*
X14806518Y11824501D01*
X14806520Y11824501D01*
X14806521Y11824502D01*
X14853411Y11831928D01*
X14900299Y11839353D01*
X14900299Y11839354D01*
X14900304Y11839354D01*
X15013342Y11896950D01*
X15103050Y11986658D01*
X15160646Y12099696D01*
X15175500Y12193481D01*
X15175499Y12656518D01*
X15167455Y12707311D01*
X15160647Y12750300D01*
X15160646Y12750302D01*
X15160646Y12750304D01*
X15103050Y12863342D01*
X15013342Y12953050D01*
X14900304Y13010646D01*
X14900305Y13010646D01*
X14806522Y13025500D01*
X14193479Y13025500D01*
X14193476Y13025499D01*
X14099700Y13010648D01*
X14099695Y13010646D01*
X13986659Y12953051D01*
X13896949Y12863341D01*
X13848571Y12768395D01*
X13805306Y12725131D01*
X13761862Y12714352D01*
X13293083Y12707249D01*
X13234612Y12725273D01*
X13221585Y12736229D01*
X13179494Y12778320D01*
X13151719Y12832834D01*
X13150500Y12848321D01*
X13150500Y12921635D01*
X13169407Y12979826D01*
X13200108Y13005611D01*
X13199806Y13006035D01*
X13205197Y13009885D01*
X13206020Y13010577D01*
X13206483Y13010802D01*
X13289198Y13093517D01*
X13340573Y13198607D01*
X13350500Y13266740D01*
X13350500Y14133260D01*
X20629500Y14133260D01*
X20629500Y13266740D01*
X20636118Y13221318D01*
X20639427Y13198605D01*
X20690801Y13093519D01*
X20690802Y13093517D01*
X20773517Y13010802D01*
X20773978Y13010577D01*
X20774387Y13010181D01*
X20780194Y13006035D01*
X20779572Y13005165D01*
X20817953Y12968035D01*
X20829500Y12921635D01*
X20829500Y12848321D01*
X20810593Y12790130D01*
X20800509Y12778324D01*
X20758420Y12736234D01*
X20729497Y12707311D01*
X20729496Y12707310D01*
X20663609Y12593191D01*
X20653394Y12555067D01*
X20629500Y12465892D01*
X20629500Y12334108D01*
X20636667Y12307360D01*
X20663609Y12206810D01*
X20729496Y12092691D01*
X20729498Y12092689D01*
X20729500Y12092686D01*
X20822686Y11999500D01*
X20822688Y11999499D01*
X20822690Y11999497D01*
X20936810Y11933610D01*
X20936808Y11933610D01*
X20936812Y11933609D01*
X20936814Y11933608D01*
X21064108Y11899500D01*
X21064110Y11899500D01*
X21195891Y11899500D01*
X21195892Y11899500D01*
X21279878Y11922004D01*
X21340978Y11918803D01*
X21388528Y11880298D01*
X21404500Y11826378D01*
X21404500Y11316511D01*
X21420281Y11216875D01*
X21420283Y11216868D01*
X21451250Y11156093D01*
X21481472Y11096780D01*
X21576780Y11001472D01*
X21576782Y11001471D01*
X21696867Y10940284D01*
X21696869Y10940284D01*
X21696874Y10940281D01*
X21772541Y10928297D01*
X21796510Y10924500D01*
X21796512Y10924500D01*
X22363490Y10924500D01*
X22384885Y10927889D01*
X22463126Y10940281D01*
X22583220Y11001472D01*
X22678528Y11096780D01*
X22716063Y11170446D01*
X22759328Y11213710D01*
X22804272Y11224500D01*
X23050500Y11224500D01*
X23108691Y11205593D01*
X23144655Y11156093D01*
X23149500Y11125500D01*
X23149500Y4548322D01*
X23130593Y4490131D01*
X23120505Y4478320D01*
X23099501Y4457316D01*
X23099496Y4457310D01*
X23033609Y4343191D01*
X23033608Y4343186D01*
X22999500Y4215892D01*
X22999500Y4084108D01*
X23012924Y4034008D01*
X23033609Y3956810D01*
X23099496Y3842691D01*
X23099498Y3842689D01*
X23099500Y3842686D01*
X23192686Y3749500D01*
X23192688Y3749499D01*
X23192690Y3749497D01*
X23306810Y3683610D01*
X23306808Y3683610D01*
X23306812Y3683609D01*
X23306814Y3683608D01*
X23434108Y3649500D01*
X23434110Y3649500D01*
X23565890Y3649500D01*
X23565892Y3649500D01*
X23693186Y3683608D01*
X23693188Y3683610D01*
X23693190Y3683610D01*
X23807309Y3749497D01*
X23807309Y3749498D01*
X23807314Y3749500D01*
X23900500Y3842686D01*
X23939098Y3909539D01*
X23966390Y3956810D01*
X23966390Y3956812D01*
X23966392Y3956814D01*
X24000500Y4084108D01*
X24000500Y4215892D01*
X23966392Y4343186D01*
X23966390Y4343189D01*
X23966390Y4343191D01*
X23900503Y4457310D01*
X23900498Y4457316D01*
X23879495Y4478320D01*
X23851719Y4532837D01*
X23850500Y4548322D01*
X23850500Y8350500D01*
X23869407Y8408691D01*
X23918907Y8444655D01*
X23949500Y8449500D01*
X29946142Y8449500D01*
X29946144Y8449500D01*
X30035288Y8473386D01*
X30115212Y8519531D01*
X30180469Y8584788D01*
X30226614Y8664712D01*
X30250500Y8753856D01*
X30250500Y11125500D01*
X30269407Y11183691D01*
X30318907Y11219655D01*
X30349500Y11224500D01*
X31946142Y11224500D01*
X31946144Y11224500D01*
X32035288Y11248386D01*
X32115212Y11294531D01*
X32180469Y11359788D01*
X32226614Y11439712D01*
X32250500Y11528856D01*
X32250500Y17303311D01*
X32269407Y17361502D01*
X32304552Y17391519D01*
X32413342Y17446950D01*
X32503050Y17536658D01*
X32560646Y17649696D01*
X32575500Y17743481D01*
X32575499Y18206518D01*
X32575498Y18206522D01*
X32575498Y18206524D01*
X32560647Y18300300D01*
X32560646Y18300302D01*
X32560646Y18300304D01*
X32503050Y18413342D01*
X32413342Y18503050D01*
X32300304Y18560646D01*
X32300305Y18560646D01*
X32206522Y18575500D01*
X31593479Y18575500D01*
X31593476Y18575499D01*
X31499700Y18560648D01*
X31499695Y18560646D01*
X31386659Y18503051D01*
X31296949Y18413341D01*
X31239354Y18300305D01*
X31224500Y18206523D01*
X31224500Y17743480D01*
X31224501Y17743477D01*
X31239352Y17649701D01*
X31239354Y17649696D01*
X31296950Y17536658D01*
X31386658Y17446950D01*
X31495447Y17391519D01*
X31538710Y17348256D01*
X31549500Y17303311D01*
X31549500Y12024500D01*
X31530593Y11966309D01*
X31481093Y11930345D01*
X31450500Y11925500D01*
X29724272Y11925500D01*
X29666081Y11944407D01*
X29636063Y11979554D01*
X29623152Y12004893D01*
X29598528Y12053220D01*
X29503220Y12148528D01*
X29503217Y12148530D01*
X29383129Y12209718D01*
X29375718Y12212126D01*
X29376185Y12213566D01*
X29329491Y12237362D01*
X29301718Y12291881D01*
X29300500Y12307360D01*
X29300500Y12921635D01*
X29319407Y12979826D01*
X29350108Y13005611D01*
X29349806Y13006035D01*
X29355197Y13009885D01*
X29356020Y13010577D01*
X29356483Y13010802D01*
X29404998Y13059318D01*
X29459513Y13087093D01*
X29519945Y13077522D01*
X29545000Y13059319D01*
X29593517Y13010802D01*
X29630484Y12992730D01*
X29698604Y12959428D01*
X29698605Y12959428D01*
X29698607Y12959427D01*
X29766740Y12949500D01*
X29766743Y12949500D01*
X30133257Y12949500D01*
X30133260Y12949500D01*
X30201393Y12959427D01*
X30306483Y13010802D01*
X30389198Y13093517D01*
X30440573Y13198607D01*
X30450500Y13266740D01*
X30450500Y14133260D01*
X30440573Y14201393D01*
X30389198Y14306483D01*
X30306483Y14389198D01*
X30306481Y14389199D01*
X30201395Y14440573D01*
X30174139Y14444544D01*
X30133260Y14450500D01*
X29766740Y14450500D01*
X29732673Y14445537D01*
X29698604Y14440573D01*
X29593518Y14389199D01*
X29593517Y14389199D01*
X29593517Y14389198D01*
X29545001Y14340683D01*
X29490487Y14312907D01*
X29430055Y14322478D01*
X29404999Y14340682D01*
X29356483Y14389198D01*
X29356481Y14389199D01*
X29251395Y14440573D01*
X29224139Y14444544D01*
X29183260Y14450500D01*
X28816740Y14450500D01*
X28782673Y14445537D01*
X28748604Y14440573D01*
X28643518Y14389199D01*
X28643517Y14389199D01*
X28643517Y14389198D01*
X28595001Y14340683D01*
X28540487Y14312907D01*
X28480055Y14322478D01*
X28454999Y14340682D01*
X28406483Y14389198D01*
X28406481Y14389199D01*
X28301395Y14440573D01*
X28274139Y14444544D01*
X28233260Y14450500D01*
X27866740Y14450500D01*
X27832673Y14445537D01*
X27798604Y14440573D01*
X27693518Y14389199D01*
X27610801Y14306482D01*
X27559427Y14201396D01*
X27559427Y14201393D01*
X27549500Y14133260D01*
X27549500Y13266740D01*
X27556118Y13221318D01*
X27559427Y13198605D01*
X27610801Y13093519D01*
X27610802Y13093517D01*
X27693517Y13010802D01*
X27693978Y13010577D01*
X27694387Y13010181D01*
X27700194Y13006035D01*
X27699572Y13005165D01*
X27737953Y12968035D01*
X27749500Y12921635D01*
X27749500Y12848321D01*
X27730593Y12790130D01*
X27720509Y12778324D01*
X27678420Y12736234D01*
X27649497Y12707311D01*
X27649496Y12707310D01*
X27583609Y12593191D01*
X27573394Y12555067D01*
X27549500Y12465892D01*
X27549500Y12334108D01*
X27556667Y12307360D01*
X27583609Y12206810D01*
X27649496Y12092691D01*
X27649498Y12092689D01*
X27649500Y12092686D01*
X27742686Y11999500D01*
X27742688Y11999499D01*
X27742690Y11999497D01*
X27856810Y11933610D01*
X27856808Y11933610D01*
X27856812Y11933609D01*
X27856814Y11933608D01*
X27984108Y11899500D01*
X27984110Y11899500D01*
X28115891Y11899500D01*
X28115892Y11899500D01*
X28199878Y11922004D01*
X28260978Y11918803D01*
X28308528Y11880298D01*
X28324500Y11826378D01*
X28324500Y11316511D01*
X28340281Y11216875D01*
X28340283Y11216868D01*
X28371250Y11156093D01*
X28401472Y11096780D01*
X28496780Y11001472D01*
X28496782Y11001471D01*
X28616867Y10940284D01*
X28616869Y10940284D01*
X28616874Y10940281D01*
X28692541Y10928297D01*
X28716510Y10924500D01*
X28716512Y10924500D01*
X29283490Y10924500D01*
X29304885Y10927889D01*
X29383126Y10940281D01*
X29405555Y10951710D01*
X29465985Y10961281D01*
X29520502Y10933505D01*
X29548281Y10878989D01*
X29549500Y10863500D01*
X29549500Y9249500D01*
X29530593Y9191309D01*
X29481093Y9155345D01*
X29450500Y9150500D01*
X23949500Y9150500D01*
X23891309Y9169407D01*
X23855345Y9218907D01*
X23850500Y9249500D01*
X23850500Y11621143D01*
X23850500Y11621144D01*
X23826614Y11710288D01*
X23780469Y11790212D01*
X23715212Y11855469D01*
X23638949Y11899500D01*
X23635290Y11901613D01*
X23635289Y11901614D01*
X23635288Y11901614D01*
X23546144Y11925500D01*
X23546142Y11925500D01*
X23502321Y11925500D01*
X23444130Y11944407D01*
X23408166Y11993907D01*
X23408166Y12055093D01*
X23427570Y12086758D01*
X23426551Y12087540D01*
X23430496Y12092683D01*
X23430500Y12092686D01*
X23438384Y12106341D01*
X23496390Y12206810D01*
X23496390Y12206812D01*
X23496392Y12206814D01*
X23530500Y12334108D01*
X23530500Y12465892D01*
X23496392Y12593186D01*
X23496390Y12593189D01*
X23496390Y12593191D01*
X23430503Y12707310D01*
X23430501Y12707312D01*
X23430500Y12707314D01*
X23359494Y12778320D01*
X23331719Y12832834D01*
X23330500Y12848321D01*
X23330500Y12921635D01*
X23349407Y12979826D01*
X23380108Y13005611D01*
X23379806Y13006035D01*
X23385197Y13009885D01*
X23386020Y13010577D01*
X23386483Y13010802D01*
X23469198Y13093517D01*
X23520573Y13198607D01*
X23530500Y13266740D01*
X23530500Y14133260D01*
X23520573Y14201393D01*
X23469198Y14306483D01*
X23386483Y14389198D01*
X23386481Y14389199D01*
X23281395Y14440573D01*
X23254139Y14444544D01*
X23213260Y14450500D01*
X22846740Y14450500D01*
X22812673Y14445537D01*
X22778604Y14440573D01*
X22673518Y14389199D01*
X22673517Y14389199D01*
X22673517Y14389198D01*
X22625001Y14340683D01*
X22570487Y14312907D01*
X22510055Y14322478D01*
X22484999Y14340682D01*
X22436483Y14389198D01*
X22436481Y14389199D01*
X22331395Y14440573D01*
X22304139Y14444544D01*
X22263260Y14450500D01*
X21896740Y14450500D01*
X21862673Y14445537D01*
X21828604Y14440573D01*
X21723518Y14389199D01*
X21723517Y14389199D01*
X21723517Y14389198D01*
X21675001Y14340683D01*
X21620487Y14312907D01*
X21560055Y14322478D01*
X21534999Y14340682D01*
X21486483Y14389198D01*
X21486481Y14389199D01*
X21381395Y14440573D01*
X21354139Y14444544D01*
X21313260Y14450500D01*
X20946740Y14450500D01*
X20912673Y14445537D01*
X20878604Y14440573D01*
X20773518Y14389199D01*
X20690801Y14306482D01*
X20639427Y14201396D01*
X20639427Y14201393D01*
X20629500Y14133260D01*
X13350500Y14133260D01*
X13340573Y14201393D01*
X13289198Y14306483D01*
X13206483Y14389198D01*
X13206481Y14389199D01*
X13101395Y14440573D01*
X13074139Y14444544D01*
X13033260Y14450500D01*
X12666740Y14450500D01*
X12632673Y14445537D01*
X12598604Y14440573D01*
X12493518Y14389199D01*
X12410801Y14306482D01*
X12359427Y14201396D01*
X12359427Y14201393D01*
X12349500Y14133260D01*
X11450500Y14133260D01*
X11440573Y14201393D01*
X11389198Y14306483D01*
X11306483Y14389198D01*
X11306481Y14389199D01*
X11201395Y14440573D01*
X11174139Y14444544D01*
X11133260Y14450500D01*
X10766740Y14450500D01*
X10732673Y14445537D01*
X10698604Y14440573D01*
X10593518Y14389199D01*
X10510801Y14306482D01*
X10459427Y14201396D01*
X10459427Y14201393D01*
X10449500Y14133260D01*
X10449500Y13266740D01*
X10456118Y13221318D01*
X10459427Y13198605D01*
X10510801Y13093519D01*
X10510802Y13093517D01*
X10593517Y13010802D01*
X10593978Y13010577D01*
X10594387Y13010181D01*
X10600194Y13006035D01*
X10599572Y13005165D01*
X10637953Y12968035D01*
X10649500Y12921635D01*
X10649500Y12824500D01*
X10630593Y12766309D01*
X10581093Y12730345D01*
X10550500Y12725500D01*
X10033951Y12725500D01*
X9975760Y12744407D01*
X9945742Y12779553D01*
X9903050Y12863342D01*
X9813342Y12953050D01*
X9700304Y13010646D01*
X9700305Y13010646D01*
X9606522Y13025500D01*
X8993479Y13025500D01*
X8993476Y13025499D01*
X8899700Y13010648D01*
X8899695Y13010646D01*
X8786659Y12953051D01*
X8696949Y12863341D01*
X8639354Y12750305D01*
X8624500Y12656523D01*
X300000Y12656523D01*
X300000Y18206523D01*
X8704500Y18206523D01*
X8704500Y17743480D01*
X8704501Y17743477D01*
X8719352Y17649701D01*
X8719354Y17649696D01*
X8776950Y17536658D01*
X8866658Y17446950D01*
X8979696Y17389354D01*
X9073481Y17374500D01*
X9488093Y17374501D01*
X9546284Y17355594D01*
X9560324Y17343204D01*
X10422731Y16423121D01*
X10448731Y16367736D01*
X10449500Y16355419D01*
X10449500Y15866740D01*
X10456118Y15821318D01*
X10459427Y15798605D01*
X10510801Y15693519D01*
X10510802Y15693517D01*
X10593517Y15610802D01*
X10647285Y15584517D01*
X10698604Y15559428D01*
X10698605Y15559428D01*
X10698607Y15559427D01*
X10766740Y15549500D01*
X10766743Y15549500D01*
X11133257Y15549500D01*
X11133260Y15549500D01*
X11201393Y15559427D01*
X11306483Y15610802D01*
X11354998Y15659318D01*
X11409513Y15687093D01*
X11469945Y15677522D01*
X11495000Y15659319D01*
X11543517Y15610802D01*
X11597285Y15584517D01*
X11648604Y15559428D01*
X11648605Y15559428D01*
X11648607Y15559427D01*
X11716740Y15549500D01*
X11716743Y15549500D01*
X12083257Y15549500D01*
X12083260Y15549500D01*
X12151393Y15559427D01*
X12256483Y15610802D01*
X12304998Y15659318D01*
X12359513Y15687093D01*
X12419945Y15677522D01*
X12445000Y15659319D01*
X12493517Y15610802D01*
X12547285Y15584517D01*
X12598604Y15559428D01*
X12598605Y15559428D01*
X12598607Y15559427D01*
X12666740Y15549500D01*
X12666743Y15549500D01*
X13033257Y15549500D01*
X13033260Y15549500D01*
X13101393Y15559427D01*
X13206483Y15610802D01*
X13289198Y15693517D01*
X13340573Y15798607D01*
X13350500Y15866740D01*
X13350500Y16347208D01*
X13369407Y16405399D01*
X13378120Y16415808D01*
X13978642Y17040574D01*
X14270395Y17344106D01*
X14324352Y17372957D01*
X14341770Y17374501D01*
X14766521Y17374501D01*
X14766522Y17374502D01*
X14813411Y17381928D01*
X14860299Y17389353D01*
X14860299Y17389354D01*
X14860304Y17389354D01*
X14973342Y17446950D01*
X15063050Y17536658D01*
X15120646Y17649696D01*
X15135500Y17743481D01*
X15135499Y18206518D01*
X15135498Y18206522D01*
X15135498Y18206524D01*
X15120647Y18300300D01*
X15120646Y18300302D01*
X15120646Y18300304D01*
X15063050Y18413342D01*
X14973342Y18503050D01*
X14860304Y18560646D01*
X14860305Y18560646D01*
X14766522Y18575500D01*
X14153479Y18575500D01*
X14153476Y18575499D01*
X14059700Y18560648D01*
X14059695Y18560646D01*
X13946659Y18503051D01*
X13856949Y18413341D01*
X13799354Y18300305D01*
X13784500Y18206522D01*
X13784500Y17745731D01*
X13765593Y17687540D01*
X13756875Y17677126D01*
X13174942Y17071697D01*
X13120986Y17042846D01*
X13089294Y17042336D01*
X13068509Y17045365D01*
X13033260Y17050500D01*
X12666740Y17050500D01*
X12632673Y17045537D01*
X12598604Y17040573D01*
X12493518Y16989199D01*
X12493517Y16989199D01*
X12493517Y16989198D01*
X12445001Y16940683D01*
X12390487Y16912907D01*
X12330055Y16922478D01*
X12304999Y16940682D01*
X12256483Y16989198D01*
X12256017Y16989426D01*
X12255603Y16989827D01*
X12249808Y16993964D01*
X12250428Y16994833D01*
X12212045Y17031969D01*
X12200500Y17078365D01*
X12200500Y17101679D01*
X12219407Y17159870D01*
X12229490Y17171677D01*
X12300500Y17242686D01*
X12335502Y17303311D01*
X12366390Y17356810D01*
X12366390Y17356812D01*
X12366392Y17356814D01*
X12400500Y17484108D01*
X12400500Y17615892D01*
X12366392Y17743186D01*
X12366390Y17743189D01*
X12366390Y17743191D01*
X12300503Y17857310D01*
X12300501Y17857312D01*
X12300500Y17857314D01*
X12207314Y17950500D01*
X12207311Y17950502D01*
X12207309Y17950504D01*
X12093189Y18016391D01*
X12093191Y18016391D01*
X12043799Y18029625D01*
X11965892Y18050500D01*
X11834108Y18050500D01*
X11756200Y18029625D01*
X11706809Y18016391D01*
X11592690Y17950504D01*
X11499496Y17857310D01*
X11433609Y17743191D01*
X11418698Y17687540D01*
X11399500Y17615892D01*
X11399500Y17484108D01*
X11420161Y17407000D01*
X11433609Y17356810D01*
X11499496Y17242691D01*
X11499498Y17242689D01*
X11499500Y17242686D01*
X11570505Y17171681D01*
X11598281Y17117166D01*
X11599500Y17101679D01*
X11599500Y17078365D01*
X11580593Y17020174D01*
X11549889Y16994388D01*
X11550192Y16993964D01*
X11544817Y16990127D01*
X11543982Y16989426D01*
X11543800Y16989337D01*
X11543518Y16989199D01*
X11543517Y16989199D01*
X11543517Y16989198D01*
X11495001Y16940683D01*
X11440487Y16912907D01*
X11380055Y16922478D01*
X11354999Y16940682D01*
X11306483Y16989198D01*
X11295867Y16994388D01*
X11201395Y17040573D01*
X11174139Y17044544D01*
X11133260Y17050500D01*
X10766740Y17050500D01*
X10722581Y17044066D01*
X10662272Y17054387D01*
X10636077Y17074329D01*
X10610441Y17101679D01*
X10384057Y17343204D01*
X10081781Y17665696D01*
X10055781Y17721082D01*
X10055318Y17741177D01*
X10055497Y17743463D01*
X10055500Y17743481D01*
X10055499Y18206518D01*
X10055498Y18206522D01*
X10055498Y18206524D01*
X10040647Y18300300D01*
X10040646Y18300302D01*
X10040646Y18300304D01*
X9983050Y18413342D01*
X9893342Y18503050D01*
X9780304Y18560646D01*
X9780305Y18560646D01*
X9686522Y18575500D01*
X9073479Y18575500D01*
X9073476Y18575499D01*
X8979700Y18560648D01*
X8979695Y18560646D01*
X8866659Y18503051D01*
X8776949Y18413341D01*
X8719354Y18300305D01*
X8704500Y18206523D01*
X300000Y18206523D01*
X300000Y23069747D01*
X3249500Y23069747D01*
X3249500Y21330254D01*
X3249501Y21330242D01*
X3261132Y21271773D01*
X3261134Y21271767D01*
X3300580Y21212733D01*
X3305448Y21205448D01*
X3371769Y21161133D01*
X3416231Y21152289D01*
X3430241Y21149502D01*
X3430246Y21149502D01*
X3430252Y21149500D01*
X3430253Y21149500D01*
X5169747Y21149500D01*
X5169748Y21149500D01*
X5228231Y21161133D01*
X5294552Y21205448D01*
X5338867Y21271769D01*
X5345539Y21305316D01*
X5350499Y21330244D01*
X5350500Y21330252D01*
X5350500Y22290511D01*
X5690000Y22290511D01*
X5690000Y22109490D01*
X5718316Y21930711D01*
X5774250Y21758560D01*
X5856430Y21597272D01*
X5927424Y21499558D01*
X6396328Y21968464D01*
X6439901Y21892993D01*
X6532993Y21799901D01*
X6608460Y21756330D01*
X6139556Y21287426D01*
X6139556Y21287425D01*
X6237263Y21216436D01*
X6237269Y21216432D01*
X6398559Y21134251D01*
X6570710Y21078317D01*
X6749490Y21050000D01*
X6930510Y21050000D01*
X7109289Y21078317D01*
X7281440Y21134251D01*
X7442730Y21216432D01*
X7442735Y21216436D01*
X7540442Y21287425D01*
X7540442Y21287426D01*
X7071538Y21756330D01*
X7147007Y21799901D01*
X7240099Y21892993D01*
X7283670Y21968462D01*
X7752574Y21499558D01*
X7752575Y21499558D01*
X7823564Y21597265D01*
X7823568Y21597270D01*
X7905749Y21758560D01*
X7961683Y21930711D01*
X7990000Y22109490D01*
X7990000Y22290511D01*
X7989630Y22292847D01*
X7989630Y22292848D01*
X7987948Y22303468D01*
X8329500Y22303468D01*
X8329500Y22096533D01*
X8369869Y21893582D01*
X8449058Y21702403D01*
X8564020Y21530349D01*
X8564023Y21530345D01*
X8710345Y21384023D01*
X8882402Y21269059D01*
X9018385Y21212733D01*
X9064911Y21172997D01*
X9079500Y21121269D01*
X9079500Y20311008D01*
X9060593Y20252817D01*
X9011093Y20216853D01*
X8995987Y20213227D01*
X8979699Y20210648D01*
X8979695Y20210646D01*
X8866659Y20153051D01*
X8776949Y20063341D01*
X8719354Y19950305D01*
X8704500Y19856523D01*
X8704500Y19393480D01*
X8704501Y19393477D01*
X8719352Y19299701D01*
X8719354Y19299696D01*
X8776950Y19186658D01*
X8866658Y19096950D01*
X8979696Y19039354D01*
X9073481Y19024500D01*
X9686518Y19024501D01*
X9686520Y19024501D01*
X9686521Y19024502D01*
X9733411Y19031928D01*
X9780299Y19039353D01*
X9780299Y19039354D01*
X9780304Y19039354D01*
X9893342Y19096950D01*
X9983050Y19186658D01*
X10040646Y19299696D01*
X10055500Y19393481D01*
X10055499Y19856518D01*
X10044574Y19925500D01*
X10040647Y19950300D01*
X10040646Y19950302D01*
X10040646Y19950304D01*
X9983050Y20063342D01*
X9893342Y20153050D01*
X9780304Y20210646D01*
X9780306Y20210646D01*
X9764010Y20213227D01*
X9709494Y20241007D01*
X9681718Y20295524D01*
X9680500Y20311008D01*
X9680500Y21121269D01*
X9699407Y21179460D01*
X9741614Y21212733D01*
X9877598Y21269059D01*
X10049655Y21384023D01*
X10195977Y21530345D01*
X10310941Y21702402D01*
X10390130Y21893580D01*
X10430500Y22096535D01*
X10430500Y22290511D01*
X10770000Y22290511D01*
X10770000Y22109490D01*
X10798316Y21930711D01*
X10854250Y21758560D01*
X10936430Y21597272D01*
X11007424Y21499558D01*
X11476328Y21968464D01*
X11519901Y21892993D01*
X11612993Y21799901D01*
X11688460Y21756330D01*
X11219556Y21287426D01*
X11219556Y21287425D01*
X11317263Y21216436D01*
X11317269Y21216432D01*
X11478559Y21134251D01*
X11650710Y21078317D01*
X11829490Y21050000D01*
X12010510Y21050000D01*
X12189289Y21078317D01*
X12361440Y21134251D01*
X12522730Y21216432D01*
X12522735Y21216436D01*
X12620442Y21287425D01*
X12620442Y21287426D01*
X12151538Y21756330D01*
X12227007Y21799901D01*
X12320099Y21892993D01*
X12363670Y21968462D01*
X12832574Y21499558D01*
X12832575Y21499558D01*
X12903564Y21597265D01*
X12903568Y21597270D01*
X12985749Y21758560D01*
X13041683Y21930711D01*
X13070000Y22109490D01*
X13070000Y22290511D01*
X13069630Y22292847D01*
X13069630Y22292848D01*
X13067948Y22303468D01*
X13409500Y22303468D01*
X13409500Y22096533D01*
X13449869Y21893582D01*
X13529058Y21702403D01*
X13644020Y21530349D01*
X13644023Y21530345D01*
X13790345Y21384023D01*
X13962402Y21269059D01*
X14098385Y21212733D01*
X14144911Y21172997D01*
X14159500Y21121269D01*
X14159500Y20311008D01*
X14140593Y20252817D01*
X14091093Y20216853D01*
X14075987Y20213227D01*
X14059699Y20210648D01*
X14059695Y20210646D01*
X13946659Y20153051D01*
X13856949Y20063341D01*
X13799354Y19950305D01*
X13784500Y19856523D01*
X13784500Y19393480D01*
X13784501Y19393477D01*
X13799352Y19299701D01*
X13799354Y19299696D01*
X13856950Y19186658D01*
X13946658Y19096950D01*
X14059696Y19039354D01*
X14153481Y19024500D01*
X14766518Y19024501D01*
X14766520Y19024501D01*
X14766521Y19024502D01*
X14813411Y19031928D01*
X14860299Y19039353D01*
X14860299Y19039354D01*
X14860304Y19039354D01*
X14973342Y19096950D01*
X15063050Y19186658D01*
X15120646Y19299696D01*
X15135500Y19393481D01*
X15135499Y19856518D01*
X15124574Y19925500D01*
X15120647Y19950300D01*
X15120646Y19950302D01*
X15120646Y19950304D01*
X15063050Y20063342D01*
X14973342Y20153050D01*
X14860304Y20210646D01*
X14860306Y20210646D01*
X14844010Y20213227D01*
X14789494Y20241007D01*
X14761718Y20295524D01*
X14760500Y20311008D01*
X14760500Y21121269D01*
X14779407Y21179460D01*
X14821614Y21212733D01*
X14957598Y21269059D01*
X15129655Y21384023D01*
X15275977Y21530345D01*
X15390941Y21702402D01*
X15470130Y21893580D01*
X15510500Y22096535D01*
X15510500Y22290511D01*
X15850000Y22290511D01*
X15850000Y22109490D01*
X15878316Y21930711D01*
X15934250Y21758560D01*
X16016430Y21597272D01*
X16087424Y21499558D01*
X16556328Y21968464D01*
X16599901Y21892993D01*
X16692993Y21799901D01*
X16768460Y21756330D01*
X16299556Y21287426D01*
X16299556Y21287425D01*
X16397263Y21216436D01*
X16397269Y21216432D01*
X16558559Y21134251D01*
X16730710Y21078317D01*
X16909490Y21050000D01*
X17090510Y21050000D01*
X17269289Y21078317D01*
X17441440Y21134251D01*
X17602730Y21216432D01*
X17602735Y21216436D01*
X17700442Y21287425D01*
X17700442Y21287426D01*
X17231538Y21756330D01*
X17307007Y21799901D01*
X17400099Y21892993D01*
X17443670Y21968462D01*
X17912574Y21499558D01*
X17912575Y21499558D01*
X17983564Y21597265D01*
X17983568Y21597270D01*
X18065749Y21758560D01*
X18121683Y21930711D01*
X18150000Y22109490D01*
X18150000Y22290511D01*
X18149630Y22292847D01*
X18149630Y22292848D01*
X18147948Y22303468D01*
X18489500Y22303468D01*
X18489500Y22096533D01*
X18529869Y21893582D01*
X18609058Y21702403D01*
X18724020Y21530349D01*
X18724023Y21530345D01*
X18870345Y21384023D01*
X19042402Y21269059D01*
X19178385Y21212733D01*
X19224911Y21172997D01*
X19239500Y21121269D01*
X19239500Y18412208D01*
X19239315Y18406162D01*
X19237644Y18378868D01*
X19237793Y18376737D01*
X19239220Y18362559D01*
X19239499Y18360438D01*
X19246578Y18334021D01*
X19247965Y18328131D01*
X19253415Y18301333D01*
X19254095Y18299359D01*
X19259166Y18285972D01*
X19259979Y18284011D01*
X19273648Y18260335D01*
X19276512Y18255005D01*
X19288717Y18230522D01*
X19289904Y18228762D01*
X19298226Y18217202D01*
X19299537Y18215494D01*
X19299540Y18215489D01*
X19299544Y18215485D01*
X19318891Y18196137D01*
X19323021Y18191747D01*
X19341143Y18171262D01*
X19341144Y18171261D01*
X19342783Y18169837D01*
X19353810Y18160828D01*
X19355486Y18159542D01*
X19379175Y18145864D01*
X19384319Y18142681D01*
X19407118Y18127589D01*
X19409093Y18126626D01*
X19421969Y18120825D01*
X19424004Y18119983D01*
X19424011Y18119979D01*
X19450445Y18112896D01*
X19456199Y18111164D01*
X20066918Y17906790D01*
X20116100Y17870394D01*
X20134500Y17812909D01*
X20134500Y17743480D01*
X20134501Y17743477D01*
X20149352Y17649701D01*
X20149354Y17649696D01*
X20206950Y17536658D01*
X20296658Y17446950D01*
X20409696Y17389354D01*
X20503481Y17374500D01*
X20586451Y17374501D01*
X20644641Y17355594D01*
X20680605Y17306095D01*
X20681972Y17301515D01*
X20753326Y17039509D01*
X20750374Y16978395D01*
X20727810Y16943493D01*
X20690802Y16906484D01*
X20639427Y16801396D01*
X20639427Y16801393D01*
X20629500Y16733260D01*
X20629500Y15866740D01*
X20636118Y15821318D01*
X20639427Y15798605D01*
X20690801Y15693519D01*
X20690802Y15693517D01*
X20773517Y15610802D01*
X20827285Y15584517D01*
X20878604Y15559428D01*
X20878605Y15559428D01*
X20878607Y15559427D01*
X20946740Y15549500D01*
X20946743Y15549500D01*
X21313257Y15549500D01*
X21313260Y15549500D01*
X21381393Y15559427D01*
X21486483Y15610802D01*
X21569198Y15693517D01*
X21620573Y15798607D01*
X21630500Y15866740D01*
X21630500Y16733260D01*
X22529500Y16733260D01*
X22529500Y15866740D01*
X22536118Y15821318D01*
X22539427Y15798605D01*
X22590801Y15693519D01*
X22590802Y15693517D01*
X22673517Y15610802D01*
X22727285Y15584517D01*
X22778604Y15559428D01*
X22778605Y15559428D01*
X22778607Y15559427D01*
X22846740Y15549500D01*
X22846743Y15549500D01*
X23213257Y15549500D01*
X23213260Y15549500D01*
X23281393Y15559427D01*
X23386483Y15610802D01*
X23469198Y15693517D01*
X23520573Y15798607D01*
X23530500Y15866740D01*
X23530500Y16733260D01*
X27549500Y16733260D01*
X27549500Y15866740D01*
X27556118Y15821318D01*
X27559427Y15798605D01*
X27610801Y15693519D01*
X27610802Y15693517D01*
X27693517Y15610802D01*
X27747285Y15584517D01*
X27798604Y15559428D01*
X27798605Y15559428D01*
X27798607Y15559427D01*
X27866740Y15549500D01*
X27866743Y15549500D01*
X28233257Y15549500D01*
X28233260Y15549500D01*
X28301393Y15559427D01*
X28406483Y15610802D01*
X28489198Y15693517D01*
X28540573Y15798607D01*
X28550500Y15866740D01*
X28550500Y16696191D01*
X28569407Y16754382D01*
X28598188Y16780856D01*
X28684158Y16832959D01*
X29852208Y17540868D01*
X29853835Y17541831D01*
X29884510Y17559540D01*
X29884511Y17559542D01*
X29884514Y17559543D01*
X29885791Y17560523D01*
X29886144Y17560765D01*
X29886205Y17560813D01*
X29887921Y17562159D01*
X29888005Y17562224D01*
X29888330Y17562515D01*
X29889580Y17563517D01*
X29889579Y17563517D01*
X29889582Y17563518D01*
X29914101Y17589105D01*
X29915438Y17590469D01*
X29940459Y17615489D01*
X29940460Y17615492D01*
X29941448Y17616778D01*
X29941727Y17617103D01*
X29941761Y17617149D01*
X29943081Y17618908D01*
X29943135Y17618980D01*
X29943375Y17619346D01*
X29944322Y17620639D01*
X29944328Y17620644D01*
X29961361Y17651653D01*
X29962352Y17653411D01*
X29969445Y17665696D01*
X29980020Y17684011D01*
X29980023Y17684026D01*
X29980629Y17685485D01*
X29980829Y17685902D01*
X29980876Y17686021D01*
X29981658Y17687968D01*
X29981707Y17688087D01*
X29981845Y17688509D01*
X29982419Y17689986D01*
X29982423Y17689991D01*
X29990848Y17724344D01*
X29991334Y17726240D01*
X30000499Y17760438D01*
X30000499Y17760443D01*
X30000712Y17762058D01*
X30000791Y17762482D01*
X30000797Y17762528D01*
X30001056Y17764671D01*
X30001069Y17764772D01*
X30001094Y17765222D01*
X30001269Y17766829D01*
X30001272Y17766837D01*
X30000521Y17802136D01*
X30000499Y17804242D01*
X30000499Y19225500D01*
X30019406Y19283691D01*
X30068906Y19319655D01*
X30099499Y19324500D01*
X31166049Y19324500D01*
X31224240Y19305593D01*
X31254257Y19270448D01*
X31296950Y19186658D01*
X31386658Y19096950D01*
X31499696Y19039354D01*
X31593481Y19024500D01*
X32206518Y19024501D01*
X32206520Y19024501D01*
X32206521Y19024502D01*
X32253411Y19031928D01*
X32300299Y19039353D01*
X32300299Y19039354D01*
X32300304Y19039354D01*
X32413342Y19096950D01*
X32503050Y19186658D01*
X32560646Y19299696D01*
X32575500Y19393481D01*
X32575499Y19856518D01*
X32564574Y19925500D01*
X32560647Y19950300D01*
X32560646Y19950302D01*
X32560646Y19950304D01*
X32503050Y20063342D01*
X32413342Y20153050D01*
X32300304Y20210646D01*
X32300305Y20210646D01*
X32206522Y20225500D01*
X31593479Y20225500D01*
X31593476Y20225499D01*
X31499700Y20210648D01*
X31499695Y20210646D01*
X31386659Y20153051D01*
X31386658Y20153050D01*
X31296950Y20063342D01*
X31254257Y19979554D01*
X31210994Y19936290D01*
X31166049Y19925500D01*
X30099499Y19925500D01*
X30041308Y19944407D01*
X30005344Y19993907D01*
X30000499Y20024500D01*
X30000499Y21121269D01*
X30019406Y21179460D01*
X30061611Y21212732D01*
X30197598Y21269059D01*
X30369655Y21384023D01*
X30515977Y21530345D01*
X30630941Y21702402D01*
X30710130Y21893580D01*
X30750500Y22096535D01*
X30750500Y22303465D01*
X30710130Y22506420D01*
X30630941Y22697598D01*
X30515977Y22869655D01*
X30369655Y23015977D01*
X30289182Y23069747D01*
X30197597Y23130942D01*
X30006418Y23210131D01*
X29803467Y23250500D01*
X29803465Y23250500D01*
X29596535Y23250500D01*
X29596532Y23250500D01*
X29393581Y23210131D01*
X29202402Y23130942D01*
X29030348Y23015980D01*
X28884020Y22869652D01*
X28769058Y22697598D01*
X28689869Y22506419D01*
X28649500Y22303468D01*
X28649500Y22096533D01*
X28689869Y21893582D01*
X28769058Y21702403D01*
X28884020Y21530349D01*
X28884023Y21530345D01*
X29030345Y21384023D01*
X29202402Y21269059D01*
X29338385Y21212733D01*
X29384910Y21172996D01*
X29399499Y21121269D01*
X29399499Y18025024D01*
X29380592Y17966833D01*
X29351811Y17940359D01*
X27906034Y17064130D01*
X27868997Y17050830D01*
X27798607Y17040574D01*
X27693518Y16989199D01*
X27610801Y16906482D01*
X27559427Y16801396D01*
X27559427Y16801393D01*
X27549500Y16733260D01*
X23530500Y16733260D01*
X23520573Y16801393D01*
X23520326Y16801898D01*
X23519145Y16810260D01*
X23523130Y16832959D01*
X23523449Y16855998D01*
X23528648Y16864383D01*
X23529727Y16870523D01*
X23536546Y16877119D01*
X23546947Y16893889D01*
X24658272Y18012204D01*
X24712699Y18040150D01*
X24759907Y18036302D01*
X25146918Y17906790D01*
X25196100Y17870394D01*
X25214500Y17812909D01*
X25214500Y17743480D01*
X25214501Y17743477D01*
X25229352Y17649701D01*
X25229354Y17649696D01*
X25286950Y17536658D01*
X25376658Y17446950D01*
X25489696Y17389354D01*
X25583481Y17374500D01*
X26196518Y17374501D01*
X26196520Y17374501D01*
X26196521Y17374502D01*
X26243411Y17381928D01*
X26290299Y17389353D01*
X26290299Y17389354D01*
X26290304Y17389354D01*
X26403342Y17446950D01*
X26493050Y17536658D01*
X26550646Y17649696D01*
X26565500Y17743481D01*
X26565499Y18206518D01*
X26565498Y18206522D01*
X26565498Y18206524D01*
X26550647Y18300300D01*
X26550646Y18300302D01*
X26550646Y18300304D01*
X26493050Y18413342D01*
X26403342Y18503050D01*
X26290304Y18560646D01*
X26290305Y18560646D01*
X26196522Y18575500D01*
X25583479Y18575500D01*
X25583476Y18575499D01*
X25489700Y18560648D01*
X25489697Y18560647D01*
X25369716Y18499513D01*
X25368431Y18502034D01*
X25322563Y18487153D01*
X25291191Y18492270D01*
X24988083Y18593703D01*
X24938900Y18630100D01*
X24920500Y18687586D01*
X24920500Y21121269D01*
X24939407Y21179460D01*
X24981614Y21212733D01*
X25117598Y21269059D01*
X25289655Y21384023D01*
X25435977Y21530345D01*
X25550941Y21702402D01*
X25630130Y21893580D01*
X25670500Y22096535D01*
X25670500Y22290511D01*
X26010000Y22290511D01*
X26010000Y22109490D01*
X26038316Y21930711D01*
X26094250Y21758560D01*
X26176430Y21597272D01*
X26247424Y21499558D01*
X26716328Y21968464D01*
X26759901Y21892993D01*
X26852993Y21799901D01*
X26928460Y21756330D01*
X26459556Y21287426D01*
X26459556Y21287425D01*
X26557263Y21216436D01*
X26557269Y21216432D01*
X26718559Y21134251D01*
X26890710Y21078317D01*
X27069490Y21050000D01*
X27250510Y21050000D01*
X27429289Y21078317D01*
X27601440Y21134251D01*
X27762730Y21216432D01*
X27762735Y21216436D01*
X27860442Y21287425D01*
X27860442Y21287426D01*
X27391538Y21756330D01*
X27467007Y21799901D01*
X27560099Y21892993D01*
X27603670Y21968462D01*
X28072574Y21499558D01*
X28072575Y21499558D01*
X28143564Y21597265D01*
X28143568Y21597270D01*
X28225749Y21758560D01*
X28281683Y21930711D01*
X28310000Y22109490D01*
X28310000Y22290511D01*
X28281683Y22469290D01*
X28225749Y22641441D01*
X28143568Y22802731D01*
X28143564Y22802737D01*
X28072575Y22900444D01*
X28072574Y22900444D01*
X27603670Y22431540D01*
X27560099Y22507007D01*
X27467007Y22600099D01*
X27391536Y22643672D01*
X27860442Y23112576D01*
X27762728Y23183570D01*
X27601440Y23265750D01*
X27429289Y23321684D01*
X27250510Y23350000D01*
X27069490Y23350000D01*
X26890710Y23321684D01*
X26718559Y23265750D01*
X26557269Y23183569D01*
X26557265Y23183567D01*
X26459556Y23112577D01*
X26928461Y22643672D01*
X26852993Y22600099D01*
X26759901Y22507007D01*
X26716328Y22431539D01*
X26247423Y22900444D01*
X26176433Y22802735D01*
X26176431Y22802731D01*
X26094250Y22641441D01*
X26038316Y22469290D01*
X26010000Y22290511D01*
X25670500Y22290511D01*
X25670500Y22303465D01*
X25630130Y22506420D01*
X25550941Y22697598D01*
X25435977Y22869655D01*
X25289655Y23015977D01*
X25209182Y23069747D01*
X25117597Y23130942D01*
X24926418Y23210131D01*
X24723467Y23250500D01*
X24723465Y23250500D01*
X24516535Y23250500D01*
X24516532Y23250500D01*
X24313581Y23210131D01*
X24122402Y23130942D01*
X23950348Y23015980D01*
X23804020Y22869652D01*
X23689058Y22697598D01*
X23609869Y22506419D01*
X23569500Y22303468D01*
X23569500Y22096533D01*
X23609869Y21893582D01*
X23689058Y21702403D01*
X23804020Y21530349D01*
X23804023Y21530345D01*
X23950345Y21384023D01*
X24122402Y21269059D01*
X24258385Y21212733D01*
X24304911Y21172997D01*
X24319500Y21121269D01*
X24319500Y18564747D01*
X24300593Y18506556D01*
X24290723Y18494963D01*
X22880011Y17075378D01*
X22825581Y17047430D01*
X22824063Y17047197D01*
X22778607Y17040574D01*
X22673518Y16989199D01*
X22590801Y16906482D01*
X22539427Y16801396D01*
X22539427Y16801393D01*
X22529500Y16733260D01*
X21630500Y16733260D01*
X21620573Y16801393D01*
X21616238Y16810260D01*
X21589779Y16864383D01*
X21569198Y16906483D01*
X21486483Y16989198D01*
X21415350Y17023973D01*
X21371377Y17066515D01*
X21363311Y17086895D01*
X21292777Y17345889D01*
X21295729Y17407000D01*
X21318295Y17441904D01*
X21323339Y17446949D01*
X21323342Y17446950D01*
X21413050Y17536658D01*
X21470646Y17649696D01*
X21485500Y17743481D01*
X21485499Y18206518D01*
X21485498Y18206522D01*
X21485498Y18206524D01*
X21470647Y18300300D01*
X21470646Y18300302D01*
X21470646Y18300304D01*
X21413050Y18413342D01*
X21323342Y18503050D01*
X21210304Y18560646D01*
X21210305Y18560646D01*
X21116522Y18575500D01*
X20503479Y18575500D01*
X20503476Y18575499D01*
X20409700Y18560648D01*
X20409697Y18560647D01*
X20289716Y18499513D01*
X20288431Y18502034D01*
X20242563Y18487153D01*
X20211191Y18492270D01*
X19908083Y18593703D01*
X19858900Y18630100D01*
X19840500Y18687586D01*
X19840500Y21121269D01*
X19859407Y21179460D01*
X19901614Y21212733D01*
X20037598Y21269059D01*
X20209655Y21384023D01*
X20355977Y21530345D01*
X20470941Y21702402D01*
X20550130Y21893580D01*
X20590500Y22096535D01*
X20590500Y22290511D01*
X20930000Y22290511D01*
X20930000Y22109490D01*
X20958316Y21930711D01*
X21014250Y21758560D01*
X21096430Y21597272D01*
X21167424Y21499558D01*
X21636328Y21968464D01*
X21679901Y21892993D01*
X21772993Y21799901D01*
X21848460Y21756330D01*
X21379556Y21287426D01*
X21379556Y21287425D01*
X21477263Y21216436D01*
X21477269Y21216432D01*
X21638559Y21134251D01*
X21810710Y21078317D01*
X21989490Y21050000D01*
X22170510Y21050000D01*
X22349289Y21078317D01*
X22521440Y21134251D01*
X22682730Y21216432D01*
X22682735Y21216436D01*
X22780442Y21287425D01*
X22780442Y21287426D01*
X22311538Y21756330D01*
X22387007Y21799901D01*
X22480099Y21892993D01*
X22523670Y21968462D01*
X22992574Y21499558D01*
X22992575Y21499558D01*
X23063564Y21597265D01*
X23063568Y21597270D01*
X23145749Y21758560D01*
X23201683Y21930711D01*
X23230000Y22109490D01*
X23230000Y22290511D01*
X23201683Y22469290D01*
X23145749Y22641441D01*
X23063568Y22802731D01*
X23063564Y22802737D01*
X22992575Y22900444D01*
X22992574Y22900444D01*
X22523670Y22431540D01*
X22480099Y22507007D01*
X22387007Y22600099D01*
X22311536Y22643672D01*
X22780442Y23112576D01*
X22682728Y23183570D01*
X22521440Y23265750D01*
X22349289Y23321684D01*
X22170510Y23350000D01*
X21989490Y23350000D01*
X21810710Y23321684D01*
X21638559Y23265750D01*
X21477269Y23183569D01*
X21477265Y23183567D01*
X21379556Y23112577D01*
X21848461Y22643672D01*
X21772993Y22600099D01*
X21679901Y22507007D01*
X21636328Y22431539D01*
X21167423Y22900444D01*
X21096433Y22802735D01*
X21096431Y22802731D01*
X21014250Y22641441D01*
X20958316Y22469290D01*
X20930000Y22290511D01*
X20590500Y22290511D01*
X20590500Y22303465D01*
X20550130Y22506420D01*
X20470941Y22697598D01*
X20355977Y22869655D01*
X20209655Y23015977D01*
X20129182Y23069747D01*
X20037597Y23130942D01*
X19846418Y23210131D01*
X19643467Y23250500D01*
X19643465Y23250500D01*
X19436535Y23250500D01*
X19436532Y23250500D01*
X19233581Y23210131D01*
X19042402Y23130942D01*
X18870348Y23015980D01*
X18724020Y22869652D01*
X18609058Y22697598D01*
X18529869Y22506419D01*
X18489500Y22303468D01*
X18147948Y22303468D01*
X18121683Y22469290D01*
X18065749Y22641441D01*
X17983568Y22802731D01*
X17983564Y22802737D01*
X17912575Y22900444D01*
X17912574Y22900444D01*
X17443670Y22431540D01*
X17400099Y22507007D01*
X17307007Y22600099D01*
X17231536Y22643672D01*
X17700442Y23112576D01*
X17602728Y23183570D01*
X17441440Y23265750D01*
X17269289Y23321684D01*
X17090510Y23350000D01*
X16909490Y23350000D01*
X16730710Y23321684D01*
X16558559Y23265750D01*
X16397269Y23183569D01*
X16397265Y23183567D01*
X16299556Y23112577D01*
X16768461Y22643672D01*
X16692993Y22600099D01*
X16599901Y22507007D01*
X16556328Y22431539D01*
X16087423Y22900444D01*
X16016433Y22802735D01*
X16016431Y22802731D01*
X15934250Y22641441D01*
X15878316Y22469290D01*
X15850000Y22290511D01*
X15510500Y22290511D01*
X15510500Y22303465D01*
X15470130Y22506420D01*
X15390941Y22697598D01*
X15275977Y22869655D01*
X15129655Y23015977D01*
X15049182Y23069747D01*
X14957597Y23130942D01*
X14766418Y23210131D01*
X14563467Y23250500D01*
X14563465Y23250500D01*
X14356535Y23250500D01*
X14356532Y23250500D01*
X14153581Y23210131D01*
X13962402Y23130942D01*
X13790348Y23015980D01*
X13644020Y22869652D01*
X13529058Y22697598D01*
X13449869Y22506419D01*
X13409500Y22303468D01*
X13067948Y22303468D01*
X13041683Y22469290D01*
X12985749Y22641441D01*
X12903568Y22802731D01*
X12903564Y22802737D01*
X12832575Y22900444D01*
X12832574Y22900444D01*
X12363670Y22431540D01*
X12320099Y22507007D01*
X12227007Y22600099D01*
X12151536Y22643672D01*
X12620442Y23112576D01*
X12522728Y23183570D01*
X12361440Y23265750D01*
X12189289Y23321684D01*
X12010510Y23350000D01*
X11829490Y23350000D01*
X11650710Y23321684D01*
X11478559Y23265750D01*
X11317269Y23183569D01*
X11317265Y23183567D01*
X11219556Y23112577D01*
X11688461Y22643672D01*
X11612993Y22600099D01*
X11519901Y22507007D01*
X11476328Y22431539D01*
X11007423Y22900444D01*
X10936433Y22802735D01*
X10936431Y22802731D01*
X10854250Y22641441D01*
X10798316Y22469290D01*
X10770000Y22290511D01*
X10430500Y22290511D01*
X10430500Y22303465D01*
X10390130Y22506420D01*
X10310941Y22697598D01*
X10195977Y22869655D01*
X10049655Y23015977D01*
X9969182Y23069747D01*
X9877597Y23130942D01*
X9686418Y23210131D01*
X9483467Y23250500D01*
X9483465Y23250500D01*
X9276535Y23250500D01*
X9276532Y23250500D01*
X9073581Y23210131D01*
X8882402Y23130942D01*
X8710348Y23015980D01*
X8564020Y22869652D01*
X8449058Y22697598D01*
X8369869Y22506419D01*
X8329500Y22303468D01*
X7987948Y22303468D01*
X7961683Y22469290D01*
X7905749Y22641441D01*
X7823568Y22802731D01*
X7823564Y22802737D01*
X7752575Y22900444D01*
X7752574Y22900444D01*
X7283670Y22431540D01*
X7240099Y22507007D01*
X7147007Y22600099D01*
X7071536Y22643672D01*
X7540442Y23112576D01*
X7442728Y23183570D01*
X7281440Y23265750D01*
X7109289Y23321684D01*
X6930510Y23350000D01*
X6749490Y23350000D01*
X6570710Y23321684D01*
X6398559Y23265750D01*
X6237269Y23183569D01*
X6237265Y23183567D01*
X6139556Y23112577D01*
X6608461Y22643672D01*
X6532993Y22600099D01*
X6439901Y22507007D01*
X6396328Y22431539D01*
X5927423Y22900444D01*
X5856433Y22802735D01*
X5856431Y22802731D01*
X5774250Y22641441D01*
X5718316Y22469290D01*
X5690000Y22290511D01*
X5350500Y22290511D01*
X5350500Y23069748D01*
X5350499Y23069758D01*
X5341981Y23112577D01*
X5338867Y23128231D01*
X5294552Y23194552D01*
X5294548Y23194555D01*
X5228233Y23238866D01*
X5228231Y23238867D01*
X5228228Y23238868D01*
X5228227Y23238868D01*
X5169758Y23250499D01*
X5169748Y23250500D01*
X3430252Y23250500D01*
X3430251Y23250500D01*
X3430241Y23250499D01*
X3371772Y23238868D01*
X3371766Y23238866D01*
X3305451Y23194555D01*
X3305445Y23194549D01*
X3261134Y23128234D01*
X3261132Y23128228D01*
X3249501Y23069759D01*
X3249500Y23069747D01*
X300000Y23069747D01*
X300000Y25501001D01*
X318907Y25559192D01*
X368407Y25595156D01*
X399000Y25600001D01*
X33600999Y25600001D01*
X33659190Y25581094D01*
G37*
%TD.AperFunction*%
%TD*%
M02*
