%TF.GenerationSoftware,KiCad,Pcbnew,10.0.6*%
%TF.CreationDate,2026-09-22T13:20:58-06:00*%
%TF.ProjectId,iwr6843_spi_adapter,69777236-3834-4335-9f73-70695f616461,rev?*%
%TF.SameCoordinates,Original*%
%TF.FileFunction,Legend,Top*%
%TF.FilePolarity,Positive*%
%FSLAX46Y46*%
G04 Gerber Fmt 4.6, Leading zero omitted, Abs format (unit mm)*
G04 Created by KiCad (PCBNEW 10.0.6) date 2026-09-22 13:20:58*
%MOMM*%
%LPD*%
G01*
G04 APERTURE LIST*
G04 Aperture macros list*
%AMRoundRect*
0 Rectangle with rounded corners*
0 $1 Rounding radius*
0 $2 $3 $4 $5 $6 $7 $8 $9 X,Y pos of 4 corners*
0 Add a 4 corners polygon primitive as box body*
4,1,4,$2,$3,$4,$5,$6,$7,$8,$9,$2,$3,0*
0 Add four circle primitives for the rounded corners*
1,1,$1+$1,$2,$3*
1,1,$1+$1,$4,$5*
1,1,$1+$1,$6,$7*
1,1,$1+$1,$8,$9*
0 Add four rect primitives between the rounded corners*
20,1,$1+$1,$2,$3,$4,$5,0*
20,1,$1+$1,$4,$5,$6,$7,0*
20,1,$1+$1,$6,$7,$8,$9,0*
20,1,$1+$1,$8,$9,$2,$3,0*%
G04 Aperture macros list end*
%ADD10C,0.150000*%
%ADD11C,0.120000*%
%ADD12C,0.210000*%
%ADD13R,1.700000X1.700000*%
%ADD14C,1.700000*%
%ADD15RoundRect,0.200000X0.275000X-0.200000X0.275000X0.200000X-0.275000X0.200000X-0.275000X-0.200000X0*%
%ADD16RoundRect,0.150000X-0.150000X0.400000X-0.150000X-0.400000X0.150000X-0.400000X0.150000X0.400000X0*%
%ADD17RoundRect,0.200000X-0.275000X0.200000X-0.275000X-0.200000X0.275000X-0.200000X0.275000X0.200000X0*%
%ADD18RoundRect,0.225000X-0.250000X0.225000X-0.250000X-0.225000X0.250000X-0.225000X0.250000X0.225000X0*%
%ADD19RoundRect,0.150000X0.150000X-0.400000X0.150000X0.400000X-0.150000X0.400000X-0.150000X-0.400000X0*%
%ADD20C,1.020000*%
G04 APERTURE END LIST*
D10*
X3433333Y25133967D02*
X3866666Y25133967D01*
X3866666Y25133967D02*
X3633333Y24867300D01*
X3633333Y24867300D02*
X3733333Y24867300D01*
X3733333Y24867300D02*
X3799999Y24833967D01*
X3799999Y24833967D02*
X3833333Y24800634D01*
X3833333Y24800634D02*
X3866666Y24733967D01*
X3866666Y24733967D02*
X3866666Y24567300D01*
X3866666Y24567300D02*
X3833333Y24500634D01*
X3833333Y24500634D02*
X3799999Y24467300D01*
X3799999Y24467300D02*
X3733333Y24433967D01*
X3733333Y24433967D02*
X3533333Y24433967D01*
X3533333Y24433967D02*
X3466666Y24467300D01*
X3466666Y24467300D02*
X3433333Y24500634D01*
X4066666Y25133967D02*
X4300000Y24433967D01*
X4300000Y24433967D02*
X4533333Y25133967D01*
X4700000Y25133967D02*
X5133333Y25133967D01*
X5133333Y25133967D02*
X4900000Y24867300D01*
X4900000Y24867300D02*
X5000000Y24867300D01*
X5000000Y24867300D02*
X5066666Y24833967D01*
X5066666Y24833967D02*
X5100000Y24800634D01*
X5100000Y24800634D02*
X5133333Y24733967D01*
X5133333Y24733967D02*
X5133333Y24567300D01*
X5133333Y24567300D02*
X5100000Y24500634D01*
X5100000Y24500634D02*
X5066666Y24467300D01*
X5066666Y24467300D02*
X5000000Y24433967D01*
X5000000Y24433967D02*
X4800000Y24433967D01*
X4800000Y24433967D02*
X4733333Y24467300D01*
X4733333Y24467300D02*
X4700000Y24500634D01*
X7023333Y25100634D02*
X6956666Y25133967D01*
X6956666Y25133967D02*
X6856666Y25133967D01*
X6856666Y25133967D02*
X6756666Y25100634D01*
X6756666Y25100634D02*
X6690000Y25033967D01*
X6690000Y25033967D02*
X6656666Y24967300D01*
X6656666Y24967300D02*
X6623333Y24833967D01*
X6623333Y24833967D02*
X6623333Y24733967D01*
X6623333Y24733967D02*
X6656666Y24600634D01*
X6656666Y24600634D02*
X6690000Y24533967D01*
X6690000Y24533967D02*
X6756666Y24467300D01*
X6756666Y24467300D02*
X6856666Y24433967D01*
X6856666Y24433967D02*
X6923333Y24433967D01*
X6923333Y24433967D02*
X7023333Y24467300D01*
X7023333Y24467300D02*
X7056666Y24500634D01*
X7056666Y24500634D02*
X7056666Y24733967D01*
X7056666Y24733967D02*
X6923333Y24733967D01*
X8746667Y24433967D02*
X8746667Y25133967D01*
X9080000Y24433967D02*
X9080000Y25133967D01*
X9080000Y25133967D02*
X9480000Y24433967D01*
X9480000Y24433967D02*
X9480000Y25133967D01*
X9713333Y25133967D02*
X10113333Y25133967D01*
X9913333Y24433967D02*
X9913333Y25133967D01*
X12103333Y25100634D02*
X12036666Y25133967D01*
X12036666Y25133967D02*
X11936666Y25133967D01*
X11936666Y25133967D02*
X11836666Y25100634D01*
X11836666Y25100634D02*
X11770000Y25033967D01*
X11770000Y25033967D02*
X11736666Y24967300D01*
X11736666Y24967300D02*
X11703333Y24833967D01*
X11703333Y24833967D02*
X11703333Y24733967D01*
X11703333Y24733967D02*
X11736666Y24600634D01*
X11736666Y24600634D02*
X11770000Y24533967D01*
X11770000Y24533967D02*
X11836666Y24467300D01*
X11836666Y24467300D02*
X11936666Y24433967D01*
X11936666Y24433967D02*
X12003333Y24433967D01*
X12003333Y24433967D02*
X12103333Y24467300D01*
X12103333Y24467300D02*
X12136666Y24500634D01*
X12136666Y24500634D02*
X12136666Y24733967D01*
X12136666Y24733967D02*
X12003333Y24733967D01*
X13360000Y24433967D02*
X13360000Y25133967D01*
X13360000Y25133967D02*
X13593334Y24633967D01*
X13593334Y24633967D02*
X13826667Y25133967D01*
X13826667Y25133967D02*
X13826667Y24433967D01*
X14160000Y24433967D02*
X14160000Y25133967D01*
X14460000Y24467300D02*
X14560000Y24433967D01*
X14560000Y24433967D02*
X14726667Y24433967D01*
X14726667Y24433967D02*
X14793333Y24467300D01*
X14793333Y24467300D02*
X14826667Y24500634D01*
X14826667Y24500634D02*
X14860000Y24567300D01*
X14860000Y24567300D02*
X14860000Y24633967D01*
X14860000Y24633967D02*
X14826667Y24700634D01*
X14826667Y24700634D02*
X14793333Y24733967D01*
X14793333Y24733967D02*
X14726667Y24767300D01*
X14726667Y24767300D02*
X14593333Y24800634D01*
X14593333Y24800634D02*
X14526667Y24833967D01*
X14526667Y24833967D02*
X14493333Y24867300D01*
X14493333Y24867300D02*
X14460000Y24933967D01*
X14460000Y24933967D02*
X14460000Y25000634D01*
X14460000Y25000634D02*
X14493333Y25067300D01*
X14493333Y25067300D02*
X14526667Y25100634D01*
X14526667Y25100634D02*
X14593333Y25133967D01*
X14593333Y25133967D02*
X14760000Y25133967D01*
X14760000Y25133967D02*
X14860000Y25100634D01*
X15293334Y25133967D02*
X15426667Y25133967D01*
X15426667Y25133967D02*
X15493334Y25100634D01*
X15493334Y25100634D02*
X15560000Y25033967D01*
X15560000Y25033967D02*
X15593334Y24900634D01*
X15593334Y24900634D02*
X15593334Y24667300D01*
X15593334Y24667300D02*
X15560000Y24533967D01*
X15560000Y24533967D02*
X15493334Y24467300D01*
X15493334Y24467300D02*
X15426667Y24433967D01*
X15426667Y24433967D02*
X15293334Y24433967D01*
X15293334Y24433967D02*
X15226667Y24467300D01*
X15226667Y24467300D02*
X15160000Y24533967D01*
X15160000Y24533967D02*
X15126667Y24667300D01*
X15126667Y24667300D02*
X15126667Y24900634D01*
X15126667Y24900634D02*
X15160000Y25033967D01*
X15160000Y25033967D02*
X15226667Y25100634D01*
X15226667Y25100634D02*
X15293334Y25133967D01*
X17183333Y25100634D02*
X17116666Y25133967D01*
X17116666Y25133967D02*
X17016666Y25133967D01*
X17016666Y25133967D02*
X16916666Y25100634D01*
X16916666Y25100634D02*
X16850000Y25033967D01*
X16850000Y25033967D02*
X16816666Y24967300D01*
X16816666Y24967300D02*
X16783333Y24833967D01*
X16783333Y24833967D02*
X16783333Y24733967D01*
X16783333Y24733967D02*
X16816666Y24600634D01*
X16816666Y24600634D02*
X16850000Y24533967D01*
X16850000Y24533967D02*
X16916666Y24467300D01*
X16916666Y24467300D02*
X17016666Y24433967D01*
X17016666Y24433967D02*
X17083333Y24433967D01*
X17083333Y24433967D02*
X17183333Y24467300D01*
X17183333Y24467300D02*
X17216666Y24500634D01*
X17216666Y24500634D02*
X17216666Y24733967D01*
X17216666Y24733967D02*
X17083333Y24733967D01*
X18440000Y24433967D02*
X18440000Y25133967D01*
X18440000Y25133967D02*
X18673334Y24633967D01*
X18673334Y24633967D02*
X18906667Y25133967D01*
X18906667Y25133967D02*
X18906667Y24433967D01*
X19373334Y25133967D02*
X19506667Y25133967D01*
X19506667Y25133967D02*
X19573334Y25100634D01*
X19573334Y25100634D02*
X19640000Y25033967D01*
X19640000Y25033967D02*
X19673334Y24900634D01*
X19673334Y24900634D02*
X19673334Y24667300D01*
X19673334Y24667300D02*
X19640000Y24533967D01*
X19640000Y24533967D02*
X19573334Y24467300D01*
X19573334Y24467300D02*
X19506667Y24433967D01*
X19506667Y24433967D02*
X19373334Y24433967D01*
X19373334Y24433967D02*
X19306667Y24467300D01*
X19306667Y24467300D02*
X19240000Y24533967D01*
X19240000Y24533967D02*
X19206667Y24667300D01*
X19206667Y24667300D02*
X19206667Y24900634D01*
X19206667Y24900634D02*
X19240000Y25033967D01*
X19240000Y25033967D02*
X19306667Y25100634D01*
X19306667Y25100634D02*
X19373334Y25133967D01*
X19940000Y24467300D02*
X20040000Y24433967D01*
X20040000Y24433967D02*
X20206667Y24433967D01*
X20206667Y24433967D02*
X20273333Y24467300D01*
X20273333Y24467300D02*
X20306667Y24500634D01*
X20306667Y24500634D02*
X20340000Y24567300D01*
X20340000Y24567300D02*
X20340000Y24633967D01*
X20340000Y24633967D02*
X20306667Y24700634D01*
X20306667Y24700634D02*
X20273333Y24733967D01*
X20273333Y24733967D02*
X20206667Y24767300D01*
X20206667Y24767300D02*
X20073333Y24800634D01*
X20073333Y24800634D02*
X20006667Y24833967D01*
X20006667Y24833967D02*
X19973333Y24867300D01*
X19973333Y24867300D02*
X19940000Y24933967D01*
X19940000Y24933967D02*
X19940000Y25000634D01*
X19940000Y25000634D02*
X19973333Y25067300D01*
X19973333Y25067300D02*
X20006667Y25100634D01*
X20006667Y25100634D02*
X20073333Y25133967D01*
X20073333Y25133967D02*
X20240000Y25133967D01*
X20240000Y25133967D02*
X20340000Y25100634D01*
X20640000Y24433967D02*
X20640000Y25133967D01*
X22263333Y25100634D02*
X22196666Y25133967D01*
X22196666Y25133967D02*
X22096666Y25133967D01*
X22096666Y25133967D02*
X21996666Y25100634D01*
X21996666Y25100634D02*
X21930000Y25033967D01*
X21930000Y25033967D02*
X21896666Y24967300D01*
X21896666Y24967300D02*
X21863333Y24833967D01*
X21863333Y24833967D02*
X21863333Y24733967D01*
X21863333Y24733967D02*
X21896666Y24600634D01*
X21896666Y24600634D02*
X21930000Y24533967D01*
X21930000Y24533967D02*
X21996666Y24467300D01*
X21996666Y24467300D02*
X22096666Y24433967D01*
X22096666Y24433967D02*
X22163333Y24433967D01*
X22163333Y24433967D02*
X22263333Y24467300D01*
X22263333Y24467300D02*
X22296666Y24500634D01*
X22296666Y24500634D02*
X22296666Y24733967D01*
X22296666Y24733967D02*
X22163333Y24733967D01*
X23720000Y24467300D02*
X23820000Y24433967D01*
X23820000Y24433967D02*
X23986667Y24433967D01*
X23986667Y24433967D02*
X24053333Y24467300D01*
X24053333Y24467300D02*
X24086667Y24500634D01*
X24086667Y24500634D02*
X24120000Y24567300D01*
X24120000Y24567300D02*
X24120000Y24633967D01*
X24120000Y24633967D02*
X24086667Y24700634D01*
X24086667Y24700634D02*
X24053333Y24733967D01*
X24053333Y24733967D02*
X23986667Y24767300D01*
X23986667Y24767300D02*
X23853333Y24800634D01*
X23853333Y24800634D02*
X23786667Y24833967D01*
X23786667Y24833967D02*
X23753333Y24867300D01*
X23753333Y24867300D02*
X23720000Y24933967D01*
X23720000Y24933967D02*
X23720000Y25000634D01*
X23720000Y25000634D02*
X23753333Y25067300D01*
X23753333Y25067300D02*
X23786667Y25100634D01*
X23786667Y25100634D02*
X23853333Y25133967D01*
X23853333Y25133967D02*
X24020000Y25133967D01*
X24020000Y25133967D02*
X24120000Y25100634D01*
X24820000Y24500634D02*
X24786667Y24467300D01*
X24786667Y24467300D02*
X24686667Y24433967D01*
X24686667Y24433967D02*
X24620000Y24433967D01*
X24620000Y24433967D02*
X24520000Y24467300D01*
X24520000Y24467300D02*
X24453334Y24533967D01*
X24453334Y24533967D02*
X24420000Y24600634D01*
X24420000Y24600634D02*
X24386667Y24733967D01*
X24386667Y24733967D02*
X24386667Y24833967D01*
X24386667Y24833967D02*
X24420000Y24967300D01*
X24420000Y24967300D02*
X24453334Y25033967D01*
X24453334Y25033967D02*
X24520000Y25100634D01*
X24520000Y25100634D02*
X24620000Y25133967D01*
X24620000Y25133967D02*
X24686667Y25133967D01*
X24686667Y25133967D02*
X24786667Y25100634D01*
X24786667Y25100634D02*
X24820000Y25067300D01*
X25120000Y24433967D02*
X25120000Y25133967D01*
X25520000Y24433967D02*
X25220000Y24833967D01*
X25520000Y25133967D02*
X25120000Y24733967D01*
X27343333Y25100634D02*
X27276666Y25133967D01*
X27276666Y25133967D02*
X27176666Y25133967D01*
X27176666Y25133967D02*
X27076666Y25100634D01*
X27076666Y25100634D02*
X27010000Y25033967D01*
X27010000Y25033967D02*
X26976666Y24967300D01*
X26976666Y24967300D02*
X26943333Y24833967D01*
X26943333Y24833967D02*
X26943333Y24733967D01*
X26943333Y24733967D02*
X26976666Y24600634D01*
X26976666Y24600634D02*
X27010000Y24533967D01*
X27010000Y24533967D02*
X27076666Y24467300D01*
X27076666Y24467300D02*
X27176666Y24433967D01*
X27176666Y24433967D02*
X27243333Y24433967D01*
X27243333Y24433967D02*
X27343333Y24467300D01*
X27343333Y24467300D02*
X27376666Y24500634D01*
X27376666Y24500634D02*
X27376666Y24733967D01*
X27376666Y24733967D02*
X27243333Y24733967D01*
X29583332Y24500634D02*
X29549999Y24467300D01*
X29549999Y24467300D02*
X29449999Y24433967D01*
X29449999Y24433967D02*
X29383332Y24433967D01*
X29383332Y24433967D02*
X29283332Y24467300D01*
X29283332Y24467300D02*
X29216666Y24533967D01*
X29216666Y24533967D02*
X29183332Y24600634D01*
X29183332Y24600634D02*
X29149999Y24733967D01*
X29149999Y24733967D02*
X29149999Y24833967D01*
X29149999Y24833967D02*
X29183332Y24967300D01*
X29183332Y24967300D02*
X29216666Y25033967D01*
X29216666Y25033967D02*
X29283332Y25100634D01*
X29283332Y25100634D02*
X29383332Y25133967D01*
X29383332Y25133967D02*
X29449999Y25133967D01*
X29449999Y25133967D02*
X29549999Y25100634D01*
X29549999Y25100634D02*
X29583332Y25067300D01*
X29849999Y24467300D02*
X29949999Y24433967D01*
X29949999Y24433967D02*
X30116666Y24433967D01*
X30116666Y24433967D02*
X30183332Y24467300D01*
X30183332Y24467300D02*
X30216666Y24500634D01*
X30216666Y24500634D02*
X30249999Y24567300D01*
X30249999Y24567300D02*
X30249999Y24633967D01*
X30249999Y24633967D02*
X30216666Y24700634D01*
X30216666Y24700634D02*
X30183332Y24733967D01*
X30183332Y24733967D02*
X30116666Y24767300D01*
X30116666Y24767300D02*
X29983332Y24800634D01*
X29983332Y24800634D02*
X29916666Y24833967D01*
X29916666Y24833967D02*
X29883332Y24867300D01*
X29883332Y24867300D02*
X29849999Y24933967D01*
X29849999Y24933967D02*
X29849999Y25000634D01*
X29849999Y25000634D02*
X29883332Y25067300D01*
X29883332Y25067300D02*
X29916666Y25100634D01*
X29916666Y25100634D02*
X29983332Y25133967D01*
X29983332Y25133967D02*
X30149999Y25133967D01*
X30149999Y25133967D02*
X30249999Y25100634D01*
X4714285Y3037705D02*
X4866666Y3037705D01*
X4866666Y3037705D02*
X4942856Y2999610D01*
X4942856Y2999610D02*
X5019047Y2923420D01*
X5019047Y2923420D02*
X5057142Y2771039D01*
X5057142Y2771039D02*
X5057142Y2504372D01*
X5057142Y2504372D02*
X5019047Y2351991D01*
X5019047Y2351991D02*
X4942856Y2275800D01*
X4942856Y2275800D02*
X4866666Y2237705D01*
X4866666Y2237705D02*
X4714285Y2237705D01*
X4714285Y2237705D02*
X4638094Y2275800D01*
X4638094Y2275800D02*
X4561904Y2351991D01*
X4561904Y2351991D02*
X4523808Y2504372D01*
X4523808Y2504372D02*
X4523808Y2771039D01*
X4523808Y2771039D02*
X4561904Y2923420D01*
X4561904Y2923420D02*
X4638094Y2999610D01*
X4638094Y2999610D02*
X4714285Y3037705D01*
X5399999Y2771039D02*
X5399999Y1971039D01*
X5399999Y2732943D02*
X5476189Y2771039D01*
X5476189Y2771039D02*
X5628570Y2771039D01*
X5628570Y2771039D02*
X5704761Y2732943D01*
X5704761Y2732943D02*
X5742856Y2694848D01*
X5742856Y2694848D02*
X5780951Y2618658D01*
X5780951Y2618658D02*
X5780951Y2390086D01*
X5780951Y2390086D02*
X5742856Y2313896D01*
X5742856Y2313896D02*
X5704761Y2275800D01*
X5704761Y2275800D02*
X5628570Y2237705D01*
X5628570Y2237705D02*
X5476189Y2237705D01*
X5476189Y2237705D02*
X5399999Y2275800D01*
X6428571Y2275800D02*
X6352380Y2237705D01*
X6352380Y2237705D02*
X6199999Y2237705D01*
X6199999Y2237705D02*
X6123809Y2275800D01*
X6123809Y2275800D02*
X6085713Y2351991D01*
X6085713Y2351991D02*
X6085713Y2656753D01*
X6085713Y2656753D02*
X6123809Y2732943D01*
X6123809Y2732943D02*
X6199999Y2771039D01*
X6199999Y2771039D02*
X6352380Y2771039D01*
X6352380Y2771039D02*
X6428571Y2732943D01*
X6428571Y2732943D02*
X6466666Y2656753D01*
X6466666Y2656753D02*
X6466666Y2580562D01*
X6466666Y2580562D02*
X6085713Y2504372D01*
X6809523Y2771039D02*
X6809523Y2237705D01*
X6809523Y2694848D02*
X6847618Y2732943D01*
X6847618Y2732943D02*
X6923808Y2771039D01*
X6923808Y2771039D02*
X7038094Y2771039D01*
X7038094Y2771039D02*
X7114285Y2732943D01*
X7114285Y2732943D02*
X7152380Y2656753D01*
X7152380Y2656753D02*
X7152380Y2237705D01*
X7799999Y2656753D02*
X7533333Y2656753D01*
X7533333Y2237705D02*
X7533333Y3037705D01*
X7533333Y3037705D02*
X7914285Y3037705D01*
X8333332Y2237705D02*
X8257142Y2275800D01*
X8257142Y2275800D02*
X8219047Y2351991D01*
X8219047Y2351991D02*
X8219047Y3037705D01*
X8638095Y2237705D02*
X8638095Y2771039D01*
X8638095Y3037705D02*
X8599999Y2999610D01*
X8599999Y2999610D02*
X8638095Y2961515D01*
X8638095Y2961515D02*
X8676190Y2999610D01*
X8676190Y2999610D02*
X8638095Y3037705D01*
X8638095Y3037705D02*
X8638095Y2961515D01*
X9361904Y2771039D02*
X9361904Y2123420D01*
X9361904Y2123420D02*
X9323809Y2047229D01*
X9323809Y2047229D02*
X9285713Y2009134D01*
X9285713Y2009134D02*
X9209523Y1971039D01*
X9209523Y1971039D02*
X9095237Y1971039D01*
X9095237Y1971039D02*
X9019047Y2009134D01*
X9361904Y2275800D02*
X9285713Y2237705D01*
X9285713Y2237705D02*
X9133332Y2237705D01*
X9133332Y2237705D02*
X9057142Y2275800D01*
X9057142Y2275800D02*
X9019047Y2313896D01*
X9019047Y2313896D02*
X8980951Y2390086D01*
X8980951Y2390086D02*
X8980951Y2618658D01*
X8980951Y2618658D02*
X9019047Y2694848D01*
X9019047Y2694848D02*
X9057142Y2732943D01*
X9057142Y2732943D02*
X9133332Y2771039D01*
X9133332Y2771039D02*
X9285713Y2771039D01*
X9285713Y2771039D02*
X9361904Y2732943D01*
X9742857Y2237705D02*
X9742857Y3037705D01*
X10085714Y2237705D02*
X10085714Y2656753D01*
X10085714Y2656753D02*
X10047619Y2732943D01*
X10047619Y2732943D02*
X9971428Y2771039D01*
X9971428Y2771039D02*
X9857142Y2771039D01*
X9857142Y2771039D02*
X9780952Y2732943D01*
X9780952Y2732943D02*
X9742857Y2694848D01*
X10352381Y2771039D02*
X10657143Y2771039D01*
X10466667Y3037705D02*
X10466667Y2351991D01*
X10466667Y2351991D02*
X10504762Y2275800D01*
X10504762Y2275800D02*
X10580952Y2237705D01*
X10580952Y2237705D02*
X10657143Y2237705D01*
X11533334Y2237705D02*
X11533334Y3037705D01*
X11838095Y3037705D02*
X12028571Y2237705D01*
X12028571Y2237705D02*
X12180952Y2809134D01*
X12180952Y2809134D02*
X12333333Y2237705D01*
X12333333Y2237705D02*
X12523810Y3037705D01*
X13285715Y2237705D02*
X13019048Y2618658D01*
X12828572Y2237705D02*
X12828572Y3037705D01*
X12828572Y3037705D02*
X13133334Y3037705D01*
X13133334Y3037705D02*
X13209524Y2999610D01*
X13209524Y2999610D02*
X13247619Y2961515D01*
X13247619Y2961515D02*
X13285715Y2885324D01*
X13285715Y2885324D02*
X13285715Y2771039D01*
X13285715Y2771039D02*
X13247619Y2694848D01*
X13247619Y2694848D02*
X13209524Y2656753D01*
X13209524Y2656753D02*
X13133334Y2618658D01*
X13133334Y2618658D02*
X12828572Y2618658D01*
X13971429Y3037705D02*
X13819048Y3037705D01*
X13819048Y3037705D02*
X13742857Y2999610D01*
X13742857Y2999610D02*
X13704762Y2961515D01*
X13704762Y2961515D02*
X13628572Y2847229D01*
X13628572Y2847229D02*
X13590476Y2694848D01*
X13590476Y2694848D02*
X13590476Y2390086D01*
X13590476Y2390086D02*
X13628572Y2313896D01*
X13628572Y2313896D02*
X13666667Y2275800D01*
X13666667Y2275800D02*
X13742857Y2237705D01*
X13742857Y2237705D02*
X13895238Y2237705D01*
X13895238Y2237705D02*
X13971429Y2275800D01*
X13971429Y2275800D02*
X14009524Y2313896D01*
X14009524Y2313896D02*
X14047619Y2390086D01*
X14047619Y2390086D02*
X14047619Y2580562D01*
X14047619Y2580562D02*
X14009524Y2656753D01*
X14009524Y2656753D02*
X13971429Y2694848D01*
X13971429Y2694848D02*
X13895238Y2732943D01*
X13895238Y2732943D02*
X13742857Y2732943D01*
X13742857Y2732943D02*
X13666667Y2694848D01*
X13666667Y2694848D02*
X13628572Y2656753D01*
X13628572Y2656753D02*
X13590476Y2580562D01*
X14504762Y2694848D02*
X14428572Y2732943D01*
X14428572Y2732943D02*
X14390477Y2771039D01*
X14390477Y2771039D02*
X14352381Y2847229D01*
X14352381Y2847229D02*
X14352381Y2885324D01*
X14352381Y2885324D02*
X14390477Y2961515D01*
X14390477Y2961515D02*
X14428572Y2999610D01*
X14428572Y2999610D02*
X14504762Y3037705D01*
X14504762Y3037705D02*
X14657143Y3037705D01*
X14657143Y3037705D02*
X14733334Y2999610D01*
X14733334Y2999610D02*
X14771429Y2961515D01*
X14771429Y2961515D02*
X14809524Y2885324D01*
X14809524Y2885324D02*
X14809524Y2847229D01*
X14809524Y2847229D02*
X14771429Y2771039D01*
X14771429Y2771039D02*
X14733334Y2732943D01*
X14733334Y2732943D02*
X14657143Y2694848D01*
X14657143Y2694848D02*
X14504762Y2694848D01*
X14504762Y2694848D02*
X14428572Y2656753D01*
X14428572Y2656753D02*
X14390477Y2618658D01*
X14390477Y2618658D02*
X14352381Y2542467D01*
X14352381Y2542467D02*
X14352381Y2390086D01*
X14352381Y2390086D02*
X14390477Y2313896D01*
X14390477Y2313896D02*
X14428572Y2275800D01*
X14428572Y2275800D02*
X14504762Y2237705D01*
X14504762Y2237705D02*
X14657143Y2237705D01*
X14657143Y2237705D02*
X14733334Y2275800D01*
X14733334Y2275800D02*
X14771429Y2313896D01*
X14771429Y2313896D02*
X14809524Y2390086D01*
X14809524Y2390086D02*
X14809524Y2542467D01*
X14809524Y2542467D02*
X14771429Y2618658D01*
X14771429Y2618658D02*
X14733334Y2656753D01*
X14733334Y2656753D02*
X14657143Y2694848D01*
X15495239Y2771039D02*
X15495239Y2237705D01*
X15304763Y3075800D02*
X15114286Y2504372D01*
X15114286Y2504372D02*
X15609525Y2504372D01*
X15838096Y3037705D02*
X16333334Y3037705D01*
X16333334Y3037705D02*
X16066668Y2732943D01*
X16066668Y2732943D02*
X16180953Y2732943D01*
X16180953Y2732943D02*
X16257144Y2694848D01*
X16257144Y2694848D02*
X16295239Y2656753D01*
X16295239Y2656753D02*
X16333334Y2580562D01*
X16333334Y2580562D02*
X16333334Y2390086D01*
X16333334Y2390086D02*
X16295239Y2313896D01*
X16295239Y2313896D02*
X16257144Y2275800D01*
X16257144Y2275800D02*
X16180953Y2237705D01*
X16180953Y2237705D02*
X15952382Y2237705D01*
X15952382Y2237705D02*
X15876191Y2275800D01*
X15876191Y2275800D02*
X15838096Y2313896D01*
X17057144Y2237705D02*
X16676192Y2237705D01*
X16676192Y2237705D02*
X16676192Y3037705D01*
X17323811Y2656753D02*
X17590477Y2656753D01*
X17704763Y2237705D02*
X17323811Y2237705D01*
X17323811Y2237705D02*
X17323811Y3037705D01*
X17323811Y3037705D02*
X17704763Y3037705D01*
X17933335Y3037705D02*
X18200002Y2237705D01*
X18200002Y2237705D02*
X18466668Y3037705D01*
X18733335Y2237705D02*
X18733335Y3037705D01*
X18733335Y3037705D02*
X19000001Y2466277D01*
X19000001Y2466277D02*
X19266668Y3037705D01*
X19266668Y3037705D02*
X19266668Y2237705D01*
X19647621Y2542467D02*
X20257145Y2542467D01*
X20638097Y2771039D02*
X21247621Y2542467D01*
X21247621Y2542467D02*
X20638097Y2313896D01*
X21628573Y2237705D02*
X21628573Y3037705D01*
X21628573Y3037705D02*
X21933335Y3037705D01*
X21933335Y3037705D02*
X22009525Y2999610D01*
X22009525Y2999610D02*
X22047620Y2961515D01*
X22047620Y2961515D02*
X22085716Y2885324D01*
X22085716Y2885324D02*
X22085716Y2771039D01*
X22085716Y2771039D02*
X22047620Y2694848D01*
X22047620Y2694848D02*
X22009525Y2656753D01*
X22009525Y2656753D02*
X21933335Y2618658D01*
X21933335Y2618658D02*
X21628573Y2618658D01*
X22428573Y2237705D02*
X22428573Y2771039D01*
X22428573Y3037705D02*
X22390477Y2999610D01*
X22390477Y2999610D02*
X22428573Y2961515D01*
X22428573Y2961515D02*
X22466668Y2999610D01*
X22466668Y2999610D02*
X22428573Y3037705D01*
X22428573Y3037705D02*
X22428573Y2961515D01*
X23190477Y3037705D02*
X22809525Y3037705D01*
X22809525Y3037705D02*
X22771429Y2656753D01*
X22771429Y2656753D02*
X22809525Y2694848D01*
X22809525Y2694848D02*
X22885715Y2732943D01*
X22885715Y2732943D02*
X23076191Y2732943D01*
X23076191Y2732943D02*
X23152382Y2694848D01*
X23152382Y2694848D02*
X23190477Y2656753D01*
X23190477Y2656753D02*
X23228572Y2580562D01*
X23228572Y2580562D02*
X23228572Y2390086D01*
X23228572Y2390086D02*
X23190477Y2313896D01*
X23190477Y2313896D02*
X23152382Y2275800D01*
X23152382Y2275800D02*
X23076191Y2237705D01*
X23076191Y2237705D02*
X22885715Y2237705D01*
X22885715Y2237705D02*
X22809525Y2275800D01*
X22809525Y2275800D02*
X22771429Y2313896D01*
X24142858Y2275800D02*
X24257144Y2237705D01*
X24257144Y2237705D02*
X24447620Y2237705D01*
X24447620Y2237705D02*
X24523811Y2275800D01*
X24523811Y2275800D02*
X24561906Y2313896D01*
X24561906Y2313896D02*
X24600001Y2390086D01*
X24600001Y2390086D02*
X24600001Y2466277D01*
X24600001Y2466277D02*
X24561906Y2542467D01*
X24561906Y2542467D02*
X24523811Y2580562D01*
X24523811Y2580562D02*
X24447620Y2618658D01*
X24447620Y2618658D02*
X24295239Y2656753D01*
X24295239Y2656753D02*
X24219049Y2694848D01*
X24219049Y2694848D02*
X24180954Y2732943D01*
X24180954Y2732943D02*
X24142858Y2809134D01*
X24142858Y2809134D02*
X24142858Y2885324D01*
X24142858Y2885324D02*
X24180954Y2961515D01*
X24180954Y2961515D02*
X24219049Y2999610D01*
X24219049Y2999610D02*
X24295239Y3037705D01*
X24295239Y3037705D02*
X24485716Y3037705D01*
X24485716Y3037705D02*
X24600001Y2999610D01*
X24942859Y2237705D02*
X24942859Y3037705D01*
X24942859Y3037705D02*
X25247621Y3037705D01*
X25247621Y3037705D02*
X25323811Y2999610D01*
X25323811Y2999610D02*
X25361906Y2961515D01*
X25361906Y2961515D02*
X25400002Y2885324D01*
X25400002Y2885324D02*
X25400002Y2771039D01*
X25400002Y2771039D02*
X25361906Y2694848D01*
X25361906Y2694848D02*
X25323811Y2656753D01*
X25323811Y2656753D02*
X25247621Y2618658D01*
X25247621Y2618658D02*
X24942859Y2618658D01*
X25742859Y2237705D02*
X25742859Y3037705D01*
X26733335Y2237705D02*
X26733335Y2771039D01*
X26733335Y2618658D02*
X26771430Y2694848D01*
X26771430Y2694848D02*
X26809525Y2732943D01*
X26809525Y2732943D02*
X26885716Y2771039D01*
X26885716Y2771039D02*
X26961906Y2771039D01*
X27533335Y2275800D02*
X27457144Y2237705D01*
X27457144Y2237705D02*
X27304763Y2237705D01*
X27304763Y2237705D02*
X27228573Y2275800D01*
X27228573Y2275800D02*
X27190477Y2351991D01*
X27190477Y2351991D02*
X27190477Y2656753D01*
X27190477Y2656753D02*
X27228573Y2732943D01*
X27228573Y2732943D02*
X27304763Y2771039D01*
X27304763Y2771039D02*
X27457144Y2771039D01*
X27457144Y2771039D02*
X27533335Y2732943D01*
X27533335Y2732943D02*
X27571430Y2656753D01*
X27571430Y2656753D02*
X27571430Y2580562D01*
X27571430Y2580562D02*
X27190477Y2504372D01*
X27838096Y2771039D02*
X28028572Y2237705D01*
X28028572Y2237705D02*
X28219049Y2771039D01*
X29095239Y2466277D02*
X29476192Y2466277D01*
X29019049Y2237705D02*
X29285716Y3037705D01*
X29285716Y3037705D02*
X29552382Y2237705D01*
X10428571Y737705D02*
X10047619Y737705D01*
X10047619Y737705D02*
X10047619Y1537705D01*
X10695238Y1156753D02*
X10961904Y1156753D01*
X11076190Y737705D02*
X10695238Y737705D01*
X10695238Y737705D02*
X10695238Y1537705D01*
X10695238Y1537705D02*
X11076190Y1537705D01*
X11304762Y1537705D02*
X11571429Y737705D01*
X11571429Y737705D02*
X11838095Y1537705D01*
X12104762Y737705D02*
X12104762Y1537705D01*
X12104762Y1537705D02*
X12371428Y966277D01*
X12371428Y966277D02*
X12638095Y1537705D01*
X12638095Y1537705D02*
X12638095Y737705D01*
X13590476Y775800D02*
X13704762Y737705D01*
X13704762Y737705D02*
X13895238Y737705D01*
X13895238Y737705D02*
X13971429Y775800D01*
X13971429Y775800D02*
X14009524Y813896D01*
X14009524Y813896D02*
X14047619Y890086D01*
X14047619Y890086D02*
X14047619Y966277D01*
X14047619Y966277D02*
X14009524Y1042467D01*
X14009524Y1042467D02*
X13971429Y1080562D01*
X13971429Y1080562D02*
X13895238Y1118658D01*
X13895238Y1118658D02*
X13742857Y1156753D01*
X13742857Y1156753D02*
X13666667Y1194848D01*
X13666667Y1194848D02*
X13628572Y1232943D01*
X13628572Y1232943D02*
X13590476Y1309134D01*
X13590476Y1309134D02*
X13590476Y1385324D01*
X13590476Y1385324D02*
X13628572Y1461515D01*
X13628572Y1461515D02*
X13666667Y1499610D01*
X13666667Y1499610D02*
X13742857Y1537705D01*
X13742857Y1537705D02*
X13933334Y1537705D01*
X13933334Y1537705D02*
X14047619Y1499610D01*
X14809524Y737705D02*
X14352381Y737705D01*
X14580953Y737705D02*
X14580953Y1537705D01*
X14580953Y1537705D02*
X14504762Y1423420D01*
X14504762Y1423420D02*
X14428572Y1347229D01*
X14428572Y1347229D02*
X14352381Y1309134D01*
X15152382Y813896D02*
X15190477Y775800D01*
X15190477Y775800D02*
X15152382Y737705D01*
X15152382Y737705D02*
X15114286Y775800D01*
X15114286Y775800D02*
X15152382Y813896D01*
X15152382Y813896D02*
X15152382Y737705D01*
X15876191Y1271039D02*
X15876191Y737705D01*
X15685715Y1575800D02*
X15495238Y1004372D01*
X15495238Y1004372D02*
X15990477Y1004372D01*
X16904763Y1156753D02*
X17514287Y1156753D01*
X17514287Y928181D02*
X16904763Y928181D01*
X18657144Y1537705D02*
X18809525Y1537705D01*
X18809525Y1537705D02*
X18885715Y1499610D01*
X18885715Y1499610D02*
X18961906Y1423420D01*
X18961906Y1423420D02*
X19000001Y1271039D01*
X19000001Y1271039D02*
X19000001Y1004372D01*
X19000001Y1004372D02*
X18961906Y851991D01*
X18961906Y851991D02*
X18885715Y775800D01*
X18885715Y775800D02*
X18809525Y737705D01*
X18809525Y737705D02*
X18657144Y737705D01*
X18657144Y737705D02*
X18580953Y775800D01*
X18580953Y775800D02*
X18504763Y851991D01*
X18504763Y851991D02*
X18466667Y1004372D01*
X18466667Y1004372D02*
X18466667Y1271039D01*
X18466667Y1271039D02*
X18504763Y1423420D01*
X18504763Y1423420D02*
X18580953Y1499610D01*
X18580953Y1499610D02*
X18657144Y1537705D01*
X19609524Y1156753D02*
X19342858Y1156753D01*
X19342858Y737705D02*
X19342858Y1537705D01*
X19342858Y1537705D02*
X19723810Y1537705D01*
X20295238Y1156753D02*
X20028572Y1156753D01*
X20028572Y737705D02*
X20028572Y1537705D01*
X20028572Y1537705D02*
X20409524Y1537705D01*
X21552381Y432943D02*
X21514286Y471039D01*
X21514286Y471039D02*
X21438095Y585324D01*
X21438095Y585324D02*
X21400000Y661515D01*
X21400000Y661515D02*
X21361905Y775800D01*
X21361905Y775800D02*
X21323810Y966277D01*
X21323810Y966277D02*
X21323810Y1118658D01*
X21323810Y1118658D02*
X21361905Y1309134D01*
X21361905Y1309134D02*
X21400000Y1423420D01*
X21400000Y1423420D02*
X21438095Y1499610D01*
X21438095Y1499610D02*
X21514286Y1613896D01*
X21514286Y1613896D02*
X21552381Y1651991D01*
X21819047Y775800D02*
X21933333Y737705D01*
X21933333Y737705D02*
X22123809Y737705D01*
X22123809Y737705D02*
X22200000Y775800D01*
X22200000Y775800D02*
X22238095Y813896D01*
X22238095Y813896D02*
X22276190Y890086D01*
X22276190Y890086D02*
X22276190Y966277D01*
X22276190Y966277D02*
X22238095Y1042467D01*
X22238095Y1042467D02*
X22200000Y1080562D01*
X22200000Y1080562D02*
X22123809Y1118658D01*
X22123809Y1118658D02*
X21971428Y1156753D01*
X21971428Y1156753D02*
X21895238Y1194848D01*
X21895238Y1194848D02*
X21857143Y1232943D01*
X21857143Y1232943D02*
X21819047Y1309134D01*
X21819047Y1309134D02*
X21819047Y1385324D01*
X21819047Y1385324D02*
X21857143Y1461515D01*
X21857143Y1461515D02*
X21895238Y1499610D01*
X21895238Y1499610D02*
X21971428Y1537705D01*
X21971428Y1537705D02*
X22161905Y1537705D01*
X22161905Y1537705D02*
X22276190Y1499610D01*
X22619048Y737705D02*
X22619048Y1537705D01*
X22619048Y1537705D02*
X22923810Y1537705D01*
X22923810Y1537705D02*
X23000000Y1499610D01*
X23000000Y1499610D02*
X23038095Y1461515D01*
X23038095Y1461515D02*
X23076191Y1385324D01*
X23076191Y1385324D02*
X23076191Y1271039D01*
X23076191Y1271039D02*
X23038095Y1194848D01*
X23038095Y1194848D02*
X23000000Y1156753D01*
X23000000Y1156753D02*
X22923810Y1118658D01*
X22923810Y1118658D02*
X22619048Y1118658D01*
X23419048Y737705D02*
X23419048Y1537705D01*
X23723809Y432943D02*
X23761904Y471039D01*
X23761904Y471039D02*
X23838095Y585324D01*
X23838095Y585324D02*
X23876190Y661515D01*
X23876190Y661515D02*
X23914285Y775800D01*
X23914285Y775800D02*
X23952381Y966277D01*
X23952381Y966277D02*
X23952381Y1118658D01*
X23952381Y1118658D02*
X23914285Y1309134D01*
X23914285Y1309134D02*
X23876190Y1423420D01*
X23876190Y1423420D02*
X23838095Y1499610D01*
X23838095Y1499610D02*
X23761904Y1613896D01*
X23761904Y1613896D02*
X23723809Y1651991D01*
%TO.C,J2*%
D11*
X2920000Y20820000D02*
X2920000Y22200000D01*
X4300000Y20820000D02*
X2920000Y20820000D01*
X5570000Y23580000D02*
X31080000Y23580000D01*
X5570000Y20820000D02*
X5570000Y23580000D01*
X5570000Y20820000D02*
X31080000Y20820000D01*
X31080000Y20820000D02*
X31080000Y23580000D01*
%TO.C,R2*%
X25367500Y18562742D02*
X25367500Y19037258D01*
X26412500Y18562742D02*
X26412500Y19037258D01*
%TO.C,U2*%
X27440000Y15200000D02*
X27440000Y14800000D01*
X30560000Y15200000D02*
X30560000Y14800000D01*
D12*
X30655000Y16950000D02*
G75*
G02*
X30445000Y16950000I-105000J0D01*
G01*
X30445000Y16950000D02*
G75*
G02*
X30655000Y16950000I105000J0D01*
G01*
%TO.C,R5*%
D11*
X8777500Y11837258D02*
X8777500Y11362742D01*
X9822500Y11837258D02*
X9822500Y11362742D01*
%TO.C,R1*%
X31377500Y18562742D02*
X31377500Y19037258D01*
X32422500Y18562742D02*
X32422500Y19037258D01*
%TO.C,C1*%
X21570000Y10940580D02*
X21570000Y10659420D01*
X22590000Y10940580D02*
X22590000Y10659420D01*
%TO.C,R7*%
X13937500Y18562742D02*
X13937500Y19037258D01*
X14982500Y18562742D02*
X14982500Y19037258D01*
%TO.C,U3*%
X10340000Y14800000D02*
X10340000Y15200000D01*
X13460000Y14800000D02*
X13460000Y15200000D01*
D12*
X10455000Y13050000D02*
G75*
G02*
X10245000Y13050000I-105000J0D01*
G01*
X10245000Y13050000D02*
G75*
G02*
X10455000Y13050000I105000J0D01*
G01*
%TO.C,C2*%
D11*
X28490000Y10940580D02*
X28490000Y10659420D01*
X29510000Y10940580D02*
X29510000Y10659420D01*
%TO.C,U1*%
X20520000Y15200000D02*
X20520000Y14800000D01*
X23640000Y15200000D02*
X23640000Y14800000D01*
D12*
X23735000Y16950000D02*
G75*
G02*
X23525000Y16950000I-105000J0D01*
G01*
X23525000Y16950000D02*
G75*
G02*
X23735000Y16950000I105000J0D01*
G01*
%TO.C,R3*%
D11*
X20287500Y18562742D02*
X20287500Y19037258D01*
X21332500Y18562742D02*
X21332500Y19037258D01*
%TO.C,R4*%
X13977500Y11837258D02*
X13977500Y11362742D01*
X15022500Y11837258D02*
X15022500Y11362742D01*
%TO.C,R6*%
X8857500Y18562742D02*
X8857500Y19037258D01*
X9902500Y18562742D02*
X9902500Y19037258D01*
%TD*%
%LPC*%
D13*
%TO.C,J2*%
X4300000Y22200000D03*
D14*
X6840000Y22200000D03*
X9380000Y22200000D03*
X11920000Y22200000D03*
X14460000Y22200000D03*
X17000000Y22200000D03*
X19540000Y22200000D03*
X22080000Y22200000D03*
X24620000Y22200000D03*
X27160000Y22200000D03*
X29700000Y22200000D03*
%TD*%
D15*
%TO.C,R2*%
X25890000Y17975000D03*
X25890000Y19625000D03*
%TD*%
D16*
%TO.C,U2*%
X29950000Y16300000D03*
X29000000Y16300000D03*
X28050000Y16300000D03*
X28050000Y13700000D03*
X29000000Y13700000D03*
X29950000Y13700000D03*
%TD*%
D17*
%TO.C,R5*%
X9300000Y12425000D03*
X9300000Y10775000D03*
%TD*%
D15*
%TO.C,R1*%
X31900000Y17975000D03*
X31900000Y19625000D03*
%TD*%
D18*
%TO.C,C1*%
X22080000Y11575000D03*
X22080000Y10025000D03*
%TD*%
D15*
%TO.C,R7*%
X14460000Y17975000D03*
X14460000Y19625000D03*
%TD*%
D19*
%TO.C,U3*%
X10950000Y13700000D03*
X11900000Y13700000D03*
X12850000Y13700000D03*
X12850000Y16300000D03*
X11900000Y16300000D03*
X10950000Y16300000D03*
%TD*%
D18*
%TO.C,C2*%
X29000000Y11575000D03*
X29000000Y10025000D03*
%TD*%
D16*
%TO.C,U1*%
X23030000Y16300000D03*
X22080000Y16300000D03*
X21130000Y16300000D03*
X21130000Y13700000D03*
X22080000Y13700000D03*
X23030000Y13700000D03*
%TD*%
D15*
%TO.C,R3*%
X20810000Y17975000D03*
X20810000Y19625000D03*
%TD*%
D17*
%TO.C,R4*%
X14500000Y12425000D03*
X14500000Y10775000D03*
%TD*%
D15*
%TO.C,R6*%
X9380000Y17975000D03*
X9380000Y19625000D03*
%TD*%
D20*
%TO.C,J1*%
X26240000Y7530000D03*
X7760000Y7530000D03*
%TD*%
%LPD*%
M02*
