%TF.GenerationSoftware,KiCad,Pcbnew,10.0.6*%
%TF.CreationDate,2026-09-22T13:51:15-06:00*%
%TF.ProjectId,iwr6843_spi_adapter,69777236-3834-4335-9f73-70695f616461,rev?*%
%TF.SameCoordinates,Original*%
%TF.FileFunction,Soldermask,Bot*%
%TF.FilePolarity,Negative*%
%FSLAX46Y46*%
G04 Gerber Fmt 4.6, Leading zero omitted, Abs format (unit mm)*
G04 Created by KiCad (PCBNEW 10.0.6) date 2026-09-22 13:51:15*
%MOMM*%
%LPD*%
G01*
G04 APERTURE LIST*
G04 Aperture macros list*
%AMRoundRect*
0 Rectangle with rounded corners*
0 $1 Rounding radius*
0 $2 $3 $4 $5 $6 $7 $8 $9 X,Y pos of 4 corners*
0 Add a 4 corners polygon primitive as box body*
4,1,4,$2,$3,$4,$5,$6,$7,$8,$9,$2,$3,0*
0 Add four circle primitives for the rounded corners*
1,1,$1+$1,$2,$3*
1,1,$1+$1,$4,$5*
1,1,$1+$1,$6,$7*
1,1,$1+$1,$8,$9*
0 Add four rect primitives between the rounded corners*
20,1,$1+$1,$2,$3,$4,$5,0*
20,1,$1+$1,$4,$5,$6,$7,0*
20,1,$1+$1,$6,$7,$8,$9,0*
20,1,$1+$1,$8,$9,$2,$3,0*%
G04 Aperture macros list end*
%ADD10R,1.700000X1.700000*%
%ADD11C,1.700000*%
%ADD12RoundRect,0.225000X0.225000X0.250000X-0.225000X0.250000X-0.225000X-0.250000X0.225000X-0.250000X0*%
%ADD13C,1.020000*%
%ADD14R,0.300000X1.450000*%
%ADD15R,2.540000X0.640000*%
%ADD16R,4.700000X0.640000*%
G04 APERTURE END LIST*
D10*
%TO.C,J2*%
X4300000Y22200000D03*
D11*
X6840000Y22200000D03*
X9380000Y22200000D03*
X11920000Y22200000D03*
X14460000Y22200000D03*
X17000000Y22200000D03*
X19540000Y22200000D03*
X22080000Y22200000D03*
X24620000Y22200000D03*
X27160000Y22200000D03*
X29700000Y22200000D03*
%TD*%
D12*
%TO.C,C3*%
X12675000Y18800000D03*
X11125000Y18800000D03*
%TD*%
D13*
%TO.C,J1*%
X26240000Y7530000D03*
X7760000Y7530000D03*
D14*
X24250000Y8590000D03*
X24250000Y2410000D03*
X23750000Y8590000D03*
X23750000Y2410000D03*
X23250000Y8590000D03*
X23250000Y2410000D03*
X22750000Y8590000D03*
X22750000Y2410000D03*
X22250000Y8590000D03*
X22250000Y2410000D03*
X21750000Y8590000D03*
X21750000Y2410000D03*
X21250000Y8590000D03*
X21250000Y2410000D03*
X20750000Y8590000D03*
X20750000Y2410000D03*
X20250000Y8590000D03*
X20250000Y2410000D03*
X19750000Y8590000D03*
X19750000Y2410000D03*
X19250000Y8590000D03*
X19250000Y2410000D03*
X18750000Y8590000D03*
X18750000Y2410000D03*
X18250000Y8590000D03*
X18250000Y2410000D03*
X17750000Y8590000D03*
X17750000Y2410000D03*
X17250000Y8590000D03*
X17250000Y2410000D03*
X16750000Y8590000D03*
X16750000Y2410000D03*
X16250000Y8590000D03*
X16250000Y2410000D03*
X15750000Y8590000D03*
X15750000Y2410000D03*
X15250000Y8590000D03*
X15250000Y2410000D03*
X14750000Y8590000D03*
X14750000Y2410000D03*
X14250000Y8590000D03*
X14250000Y2410000D03*
X13750000Y8590000D03*
X13750000Y2410000D03*
X13250000Y8590000D03*
X13250000Y2410000D03*
X12750000Y8590000D03*
X12750000Y2410000D03*
X12250000Y8590000D03*
X12250000Y2410000D03*
X11750000Y8590000D03*
X11750000Y2410000D03*
X11250000Y8590000D03*
X11250000Y2410000D03*
X10750000Y8590000D03*
X10750000Y2410000D03*
X10250000Y8590000D03*
X10250000Y2410000D03*
X9750000Y8590000D03*
X9750000Y2410000D03*
D15*
X25445000Y5500000D03*
D16*
X20175000Y5500000D03*
X13825000Y5500000D03*
D15*
X8555000Y5500000D03*
%TD*%
M02*
